<svg width="22" height="22" viewBox="0 0 22 22" fill="none" xmlns="http://www.w3.org/2000/svg">
<rect width="22" height="22" fill="#BDC3C7"/>
<rect x="-1463.5" y="-505.5" width="3927" height="1472" stroke="#FF0202" stroke-width="11"/>
<rect width="1440" height="900" transform="translate(-1025 -117)" fill="white"/>
<path d="M20.5 11C20.5 5.77386 16.2261 1.5 11 1.5C5.77386 1.5 1.5 5.77386 1.5 11C1.5 16.2261 5.77386 20.5 11 20.5C16.2261 20.5 20.5 16.2261 20.5 11ZM1 11C1 5.50114 5.50114 1 11 1C16.4989 1 21 5.50114 21 11C21 16.4989 16.4989 21 11 21C5.50114 21 1 16.4989 1 11Z" fill="#061320" stroke="#061320"/>
<path d="M11.25 10.25V10.75H11.75H16.5V11.25H11.75H11.25V11.75V16.5H10.75V11.75V11.25H10.25H5.5V10.75H10.25H10.75V10.25V5.5H11.25V10.25Z" fill="#061320" stroke="#061320"/>
</svg>
