<svg width="12" height="12" viewBox="0 0 12 12" fill="none" xmlns="http://www.w3.org/2000/svg">
<rect width="12" height="12" fill="#BDC3C7"/>
<rect width="1440" height="900" transform="translate(-640 -665)" fill="#071828"/>
<g filter="url(#filter0_d_14527_67504)">
<rect x="-344" y="-156" width="388" height="355" rx="8" fill="#061320"/>
<g opacity="0.5">
<path d="M6 1.5C8.475 1.5 10.5 3.525 10.5 6C10.5 8.475 8.475 10.5 6 10.5C3.525 10.5 1.5 8.475 1.5 6C1.5 3.525 3.525 1.5 6 1.5ZM6 0.75C3.1125 0.75 0.75 3.1125 0.75 6C0.75 8.8875 3.1125 11.25 6 11.25C8.8875 11.25 11.25 8.8875 11.25 6C11.25 3.1125 8.8875 0.75 6 0.75Z" fill="#77BC1F"/>
<path d="M9 5.625H6.375V3H5.625V5.625H3V6.375H5.625V9H6.375V6.375H9V5.625Z" fill="#77BC1F"/>
</g>
<rect x="-343.75" y="-155.75" width="387.5" height="354.5" rx="7.75" stroke="#77BC1F" stroke-opacity="0.5" stroke-width="0.5"/>
</g>
<defs>
<filter id="filter0_d_14527_67504" x="-352" y="-164" width="404" height="371" filterUnits="userSpaceOnUse" color-interpolation-filters="sRGB">
<feFlood flood-opacity="0" result="BackgroundImageFix"/>
<feColorMatrix in="SourceAlpha" type="matrix" values="0 0 0 0 0 0 0 0 0 0 0 0 0 0 0 0 0 0 127 0" result="hardAlpha"/>
<feOffset/>
<feGaussianBlur stdDeviation="4"/>
<feComposite in2="hardAlpha" operator="out"/>
<feColorMatrix type="matrix" values="0 0 0 0 1 0 0 0 0 1 0 0 0 0 1 0 0 0 0.28 0"/>
<feBlend mode="normal" in2="BackgroundImageFix" result="effect1_dropShadow_14527_67504"/>
<feBlend mode="normal" in="SourceGraphic" in2="effect1_dropShadow_14527_67504" result="shape"/>
</filter>
</defs>
</svg>
