<svg width="32" height="32" viewBox="0 0 32 32" fill="none" xmlns="http://www.w3.org/2000/svg">
<path fill-rule="evenodd" clip-rule="evenodd" d="M9.7 11C9.3134 11 9 10.6642 9 10.25C9 9.83579 9.3134 9.5 9.7 9.5H22.3C22.6866 9.5 23 9.83579 23 10.25C23 10.6642 22.6866 11 22.3 11H9.7ZM9.7 16.25C9.3134 16.25 9 15.9142 9 15.5C9 15.0858 9.3134 14.75 9.7 14.75H22.3C22.6866 14.75 23 15.0858 23 15.5C23 15.9142 22.6866 16.25 22.3 16.25H9.7ZM9 20.75C9 21.1642 9.3134 21.5 9.7 21.5H22.3C22.6866 21.5 23 21.1642 23 20.75C23 20.3358 22.6866 20 22.3 20H9.7C9.3134 20 9 20.3358 9 20.75Z" fill="white"/>
<mask id="mask0_14712_71699" style="mask-type:alpha" maskUnits="userSpaceOnUse" x="9" y="9" width="14" height="13">
<path fill-rule="evenodd" clip-rule="evenodd" d="M9.7 11C9.3134 11 9 10.6642 9 10.25C9 9.83579 9.3134 9.5 9.7 9.5H22.3C22.6866 9.5 23 9.83579 23 10.25C23 10.6642 22.6866 11 22.3 11H9.7ZM9.7 16.25C9.3134 16.25 9 15.9142 9 15.5C9 15.0858 9.3134 14.75 9.7 14.75H22.3C22.6866 14.75 23 15.0858 23 15.5C23 15.9142 22.6866 16.25 22.3 16.25H9.7ZM9 20.75C9 21.1642 9.3134 21.5 9.7 21.5H22.3C22.6866 21.5 23 21.1642 23 20.75C23 20.3358 22.6866 20 22.3 20H9.7C9.3134 20 9 20.3358 9 20.75Z" fill="white"/>
</mask>
<g mask="url(#mask0_14712_71699)">
</g>
<rect x="0.25" y="0.25" width="31.5" height="31.5" rx="3.75" stroke="white" stroke-opacity="0.2" stroke-width="0.5"/>
</svg>
