<svg width="12" height="12" viewBox="0 0 12 12" fill="none" xmlns="http://www.w3.org/2000/svg">
<path d="M10.2292 1.91667V1.77083H10.0833H7.75H7.60417V1.91667V3.08333V3.22917H7.75H10.0833H10.2292V3.08333V1.91667ZM4.39583 1.91667V1.77083H4.25H1.91667H1.77083V1.91667V5.41667V5.5625H1.91667H4.25H4.39583V5.41667V1.91667ZM10.2292 6.58333V6.4375H10.0833H7.75H7.60417V6.58333V10.0833V10.2292H7.75H10.0833H10.2292V10.0833V6.58333ZM4.39583 8.91667V8.77083H4.25H1.91667H1.77083V8.91667V10.0833V10.2292H1.91667H4.25H4.39583V10.0833V8.91667ZM6.72917 4.10417V0.895833H11.1042V4.10417H6.72917ZM5.27083 0.895833V6.4375H0.895833V0.895833H5.27083ZM6.72917 11.1042V5.5625H11.1042V11.1042H6.72917ZM0.895833 11.1042V7.89583H5.27083V11.1042H0.895833Z" fill="#F5F5F5" stroke="#071828" stroke-width="0.291667"/>
</svg>
