<svg width="24" height="24" viewBox="0 0 24 24" fill="none" xmlns="http://www.w3.org/2000/svg">
<path d="M23.2528 8.55831L23.2516 5.24425L21.7516 5.24481L21.7524 7.50287L18.6451 8.61752L16.5016 8.61784V7.16641C16.5026 6.11279 16.136 5.09182 15.465 4.27952L17.4867 2.24453H19.4948V0.744531H16.8624L14.3318 3.29191C13.6241 2.85673 12.8105 2.62418 11.9797 2.6196C11.1489 2.61502 10.3328 2.83859 9.62034 3.26594L7.13334 0.742188L4.50094 0.744531L4.5023 2.24453L6.50611 2.24275L8.47613 4.24202C7.78541 5.05987 7.40691 6.09605 7.40784 7.16655V8.6192L5.3812 8.61953L2.25 7.50419V5.24613H0.75V8.56216L4.50164 9.89852L4.50197 13.8695H0.751594V15.3695H4.50206V15.745C4.50117 16.6241 4.65508 17.4964 4.95675 18.3221L0.751594 19.9427V23.2445H2.25159V20.9722L5.61394 19.6765C6.20705 20.6432 7.01197 21.4627 7.96796 22.073C8.92395 22.6833 10.0061 23.0685 11.1326 23.1996C12.2592 23.3307 13.4009 23.2043 14.4715 22.8298C15.5421 22.4553 16.5136 21.8427 17.3129 21.0379C17.7246 20.6256 18.0872 20.1672 18.3937 19.6717L21.7518 20.9714V23.2445H23.2518V19.9435L19.0509 18.3177C19.3524 17.4901 19.505 16.6157 19.5016 15.7349V15.3695H23.2516V13.8695H19.5016V9.90391L23.2528 8.55831ZM11.25 21.7043C8.29645 21.339 6.00211 18.8061 6.00211 15.7451L6.00164 10.1196H7.40789V10.12H11.25V21.7043ZM8.90784 8.61897V7.16641C8.90784 6.35832 9.22885 5.58334 9.80025 5.01194C10.3717 4.44054 11.1466 4.11953 11.9547 4.11953C12.7628 4.11953 13.5378 4.44054 14.1092 5.01194C14.6806 5.58334 15.0016 6.35832 15.0016 7.16641V8.61803L8.90784 8.61897ZM18.0016 15.7369C18.0017 17.1998 17.4684 18.6126 16.5017 19.7107C15.535 20.8087 14.2012 21.5167 12.75 21.702V10.1195H16.5015V10.1178H18.0015L18.0016 15.7369Z" fill="#061320"/>
</svg>
