<svg width="9" height="8" viewBox="0 0 9 8" fill="none" xmlns="http://www.w3.org/2000/svg">
<path d="M7.84432 2.01503L7.84432 2.01502C8.06517 1.79418 8.06517 1.43625 7.84424 1.2154C7.62351 0.994759 7.26573 0.994701 7.04473 1.21544L5.16602 3.09415L5.05996 3.20021L4.95389 3.09416L3.07502 1.21543C2.8541 0.994725 2.49639 0.994744 2.2756 1.21538C2.27559 1.21539 2.27558 1.2154 2.27557 1.21541M7.84432 2.01503L2.27557 1.21541M7.84432 2.01503L5.96576 3.8938L5.8597 3.99986L5.96576 4.10592L7.8443 5.98459C8.06517 6.20554 8.06518 6.5634 7.84432 6.78436L7.84432 2.01503ZM2.27557 1.21541C2.05475 1.43626 2.05476 1.79418 2.2756 2.01502L2.2756 2.01503L4.15422 3.89378L4.26027 3.99984L4.15422 4.1059L2.27574 5.98455M2.27557 1.21541L2.27574 5.98455M2.27574 5.98455C2.05482 6.20565 2.05488 6.56353 2.2757 6.78434L2.2757 6.78434C2.38616 6.8948 2.53045 6.94988 2.67536 6.94988C2.82033 6.94988 2.96473 6.89469 3.07507 6.78435L3.07507 6.78434L4.9539 4.90546L5.05997 4.7994L5.16603 4.90546L7.04501 6.78436L7.04509 6.78444C7.15525 6.89477 7.29959 6.9499 7.44477 6.9499C7.58954 6.9499 7.73394 6.89474 7.8443 6.78438L2.27574 5.98455Z" fill="white" stroke="#071828" stroke-width="0.3"/>
</svg>
