<svg width="13" height="13" viewBox="0 0 13 13" fill="none" xmlns="http://www.w3.org/2000/svg">
<path fill-rule="evenodd" clip-rule="evenodd" d="M10.115 1.84119L6.49981 5.45641L2.88496 1.84119C2.59671 1.55294 2.12936 1.55294 1.84147 1.84119C1.55284 2.12908 1.55284 2.59643 1.84147 2.88468L5.45632 6.49991L1.84147 10.1148C1.55284 10.4034 1.55284 10.8704 1.84147 11.1586C2.12936 11.4469 2.59671 11.4469 2.88496 11.1586L6.49981 7.5434L10.115 11.1586C10.4033 11.4469 10.8706 11.4469 11.1585 11.1586C11.4472 10.8704 11.4472 10.4034 11.1585 10.1148L7.54368 6.49991L11.1585 2.88468C11.4472 2.59643 11.4472 2.12908 11.1585 1.84119C10.8706 1.55294 10.4033 1.55294 10.115 1.84119Z" fill="#77BC1F"/>
</svg>
