<svg width="24" height="24" viewBox="0 0 24 24" fill="none" xmlns="http://www.w3.org/2000/svg">
<path d="M21.4595 14.5405L21.4596 14.5405C21.5815 14.6623 21.65 14.8276 21.65 15V17.25C21.65 17.4224 21.5815 17.5877 21.4596 17.7096C21.3377 17.8315 21.1724 17.9 21 17.9H15.75H15.65V18V18.7499C15.6494 19.2599 15.5421 19.7641 15.335 20.2301C15.1279 20.6962 14.8255 21.1137 14.4473 21.4558C14.0691 21.798 13.6235 22.0572 13.1391 22.2168C12.6552 22.3762 12.1433 22.4327 11.6362 22.3826C10.7172 22.2652 9.87381 21.8129 9.26745 21.1123C8.66078 20.4114 8.33409 19.5113 8.34999 18.5845H8.35V18.5828V18V17.9H8.25H3C2.82761 17.9 2.66228 17.8315 2.54038 17.7096C2.41848 17.5877 2.35 17.4224 2.35 17.25V15C2.35 15 2.35 15 2.35 15C2.35004 14.8276 2.41855 14.6623 2.54045 14.5405L2.54046 14.5405L4.57071 12.5102L4.6 12.4809V12.4395V9.75012C4.60229 7.91625 5.2845 6.14836 6.51469 4.78832C7.74488 3.42827 9.43568 2.57268 11.2601 2.38699L11.35 2.37784V2.2875V0.85H12.65V2.2875V2.37784L12.7399 2.38699C14.5643 2.57268 16.2551 3.42827 17.4853 4.78832C18.7155 6.14836 19.3977 7.91625 19.4 9.75012V12.4395V12.4809L19.4293 12.5102L21.4595 14.5405ZM9.75 17.9H9.65V18V18.75C9.65 19.3733 9.89759 19.971 10.3383 20.4117C10.779 20.8524 11.3767 21.1 12 21.1C12.6233 21.1 13.221 20.8524 13.6617 20.4117C14.1024 19.971 14.35 19.3733 14.35 18.75V18V17.9H14.25H9.75ZM20.25 16.6H20.35V16.5V15.3105V15.2691L20.3207 15.2398L18.2905 13.2095L18.2904 13.2095C18.1685 13.0877 18.1 12.9224 18.1 12.75C18.1 12.75 18.1 12.75 18.1 12.75V9.75C18.1 8.13218 17.4573 6.58062 16.3134 5.43665C15.1694 4.29268 13.6178 3.65 12 3.65C10.3822 3.65 8.83062 4.29268 7.68665 5.43665C6.54268 6.58062 5.9 8.13218 5.9 9.75V12.75C5.9 12.75 5.9 12.75 5.9 12.75C5.89996 12.9224 5.83145 13.0877 5.70955 13.2095L5.70954 13.2095L3.67929 15.2398L3.65 15.2691V15.3105V16.5V16.6H3.75H20.25Z" fill="white" fill-opacity="0.75" stroke="#071828" stroke-width="0.2"/>
</svg>
