<svg width="30" height="30" viewBox="0 0 30 30" fill="none" xmlns="http://www.w3.org/2000/svg">
<path fill-rule="evenodd" clip-rule="evenodd" d="M25.6061 4.39299C19.7488 -1.46433 10.2516 -1.46433 4.39299 4.39299C-1.46433 10.2516 -1.46433 19.7475 4.39299 25.6061C10.2503 31.4634 19.7475 31.4634 25.6061 25.6061C31.4646 19.7488 31.4646 10.2503 25.6061 4.39299ZM14.2476 21.3499C14.075 21.5625 13.7636 21.5968 13.5489 21.4267L7.99994 17.0311C7.44744 16.5941 7.33619 15.7664 7.74994 15.1829C8.16369 14.6007 8.94619 14.4805 9.49995 14.9188L13.5625 18.1374L20.3 9.83487C20.75 9.28304 21.54 9.21835 22.0625 9.6923C22.5875 10.1662 22.6488 11.0006 22.1988 11.5537L14.2476 21.3499Z" fill="white"/>
</svg>
