<svg width="12" height="12" viewBox="0 0 12 12" fill="none" xmlns="http://www.w3.org/2000/svg">
<path d="M4.35703 5.99987C4.35703 6.90808 5.0918 7.64284 6 7.64284C6.90821 7.64284 7.64297 6.90808 7.64297 5.99987C7.64297 5.09167 6.90821 4.3569 6 4.3569C5.0918 4.3569 4.35703 5.0905 4.35703 5.99987ZM10.5469 4.24675L7.80118 4.38855C8.54649 5.25925 8.55821 6.5155 7.93125 7.47878L5.72813 10.8678C6.64219 10.9171 7.58438 10.7167 8.4375 10.221C10.5469 9.00222 11.4023 6.44636 10.5469 4.24675ZM3.75352 6.9362L1.91953 3.32917C1.40009 4.12296 1.12393 5.05123 1.125 5.99987C1.125 8.43737 2.90977 10.4565 5.24297 10.8139L6.49571 8.36003C5.36368 8.57331 4.27032 7.95222 3.75352 6.9362ZM6.31407 3.5905L10.35 3.80261C9.9375 2.98464 9.28828 2.27331 8.43516 1.77761C7.66289 1.33112 6.81446 1.11901 5.98243 1.12487C4.54688 1.13073 3.14414 1.77175 2.20782 2.93542L3.71016 5.24284C4.08516 4.16589 5.17266 3.5237 6.31407 3.5905Z" fill="#008DD1"/>
</svg>
