<svg width="28" height="28" viewBox="0 0 28 28" fill="none" xmlns="http://www.w3.org/2000/svg">
<path fill-rule="evenodd" clip-rule="evenodd" d="M24.0109 1.09868L13.9995 11.1101L3.98913 1.09868C3.19088 0.300438 1.89668 0.300438 1.09945 1.09868C0.300182 1.89591 0.300182 3.19011 1.09945 3.98836L11.1098 13.9997L1.09945 24.0101C0.300182 24.8094 0.300182 26.1026 1.09945 26.9008C1.89668 27.699 3.19088 27.699 3.98913 26.9008L13.9995 16.8894L24.0109 26.9008C24.8091 27.699 26.1033 27.699 26.9005 26.9008C27.6998 26.1026 27.6998 24.8094 26.9005 24.0101L16.8902 13.9997L26.9005 3.98836C27.6998 3.19011 27.6998 1.89591 26.9005 1.09868C26.1033 0.300438 24.8091 0.300438 24.0109 1.09868Z" fill="white"/>
</svg>
