<svg width="76" height="76" viewBox="0 0 76 76" fill="none" xmlns="http://www.w3.org/2000/svg">
<path d="M48.1327 73.4665H68.3994C69.7431 73.4665 71.0319 72.9327 71.982 71.9825C72.9322 71.0324 73.466 69.7436 73.466 68.3999V7.59987C73.466 6.25611 72.9322 4.96738 71.982 4.0172C71.0319 3.06701 69.7431 2.5332 68.3994 2.5332H48.1327C46.7889 2.5332 45.5002 3.06701 44.55 4.0172C43.5998 4.96738 43.066 6.25611 43.066 7.59987V68.3999C43.066 69.7436 43.5998 71.0324 44.55 71.9825C45.5002 72.9327 46.7889 73.4665 48.1327 73.4665ZM48.1327 73.4665H20.266H48.1327ZM32.9327 58.2665V73.4665V58.2665ZM43.066 27.8665H73.466H43.066ZM50.666 58.2665H65.866H50.666ZM7.59938 17.7332H43.066V58.2665H7.59938C6.25562 58.2665 4.96689 57.7327 4.01671 56.7825C3.06652 55.8324 2.53271 54.5436 2.53271 53.1999V22.7999C2.53271 21.4561 3.06652 20.1674 4.01671 19.2172C4.96689 18.267 6.25562 17.7332 7.59938 17.7332V17.7332Z" stroke="#008DD1" stroke-width="3.65217"/>
</svg>
