<svg width="16" height="16" viewBox="0 0 16 16" fill="none" xmlns="http://www.w3.org/2000/svg">
<path d="M13.6444 2.55556V2.35556H13.4444H10.3333H10.1333V2.55556V4.11111V4.31111H10.3333H13.4444H13.6444V4.11111V2.55556ZM5.86667 2.55556V2.35556H5.66667H2.55556H2.35556V2.55556V7.22222V7.42222H2.55556H5.66667H5.86667V7.22222V2.55556ZM13.6444 8.77778V8.57778H13.4444H10.3333H10.1333V8.77778V13.4444V13.6444H10.3333H13.4444H13.6444V13.4444V8.77778ZM5.86667 11.8889V11.6889H5.66667H2.55556H2.35556V11.8889V13.4444V13.6444H2.55556H5.66667H5.86667V13.4444V11.8889ZM8.97778 5.46667V1.2H14.8V5.46667H8.97778ZM7.02222 1.2V8.57778H1.2V1.2H7.02222ZM8.97778 14.8V7.42222H14.8V14.8H8.97778ZM1.2 14.8V10.5333H7.02222V14.8H1.2Z" fill="white" stroke="#061320" stroke-width="0.4"/>
</svg>
