<svg width="12" height="12" viewBox="0 0 12 12" fill="none" xmlns="http://www.w3.org/2000/svg">
<path d="M2.25 2.875V9.75C2.25 10.0815 2.3817 10.3995 2.61612 10.6339C2.85054 10.8683 3.16848 11 3.5 11H8.5C8.83152 11 9.14946 10.8683 9.38388 10.6339C9.6183 10.3995 9.75 10.0815 9.75 9.75V2.875M4.125 2.875C4.125 2.37772 4.32254 1.90081 4.67417 1.54917C5.02581 1.19754 5.50272 1 6 1V1C6.49728 1 6.97419 1.19754 7.32583 1.54917C7.67746 1.90081 7.875 2.37772 7.875 2.875V2.875H4.125ZM4.125 2.875H7.875H4.125ZM4.125 2.875H2.25H4.125ZM7.875 2.875H9.75H7.875ZM11 2.875H9.75H11ZM1 2.875H2.25H1Z" stroke="black" stroke-linecap="round" stroke-linejoin="round"/>
</svg>
