<svg width="60" height="60" viewBox="0 0 60 60" fill="none" xmlns="http://www.w3.org/2000/svg">
<path d="M34.5 12C34.5 10.8065 34.0259 9.66193 33.182 8.81802C32.3381 7.97411 31.1935 7.5 30 7.5C28.8065 7.5 27.6619 7.97411 26.818 8.81802C25.9741 9.66193 25.5 10.8065 25.5 12H34.5ZM22.5 12C22.5 10.0109 23.2902 8.10322 24.6967 6.6967C26.1032 5.29018 28.0109 4.5 30 4.5C31.9891 4.5 33.8968 5.29018 35.3033 6.6967C36.7098 8.10322 37.5 10.0109 37.5 12H51C51.3978 12 51.7794 12.158 52.0607 12.4393C52.342 12.7206 52.5 13.1022 52.5 13.5C52.5 13.8978 52.342 14.2794 52.0607 14.5607C51.7794 14.842 51.3978 15 51 15H49.338L47.886 27.588C46.9172 27.322 45.9261 27.1452 44.925 27.06L46.314 15H13.683L17.529 48.345C17.6137 49.0764 17.9643 49.751 18.5142 50.2406C19.0641 50.7302 19.7748 51.0005 20.511 51H28.8C29.349 52.074 30.012 53.079 30.771 54H20.511C19.039 54.0002 17.6184 53.4593 16.5193 52.4802C15.4201 51.5011 14.7193 50.1522 14.55 48.69L10.659 15H9C8.64892 15.0001 8.30893 14.8771 8.03922 14.6523C7.76952 14.4276 7.58719 14.1153 7.524 13.77L7.5 13.5C7.5 13.1022 7.65804 12.7206 7.93934 12.4393C8.22064 12.158 8.60218 12 9 12H22.5ZM43.5 57C47.0804 57 50.5142 55.5777 53.0459 53.0459C55.5777 50.5142 57 47.0804 57 43.5C57 39.9196 55.5777 36.4858 53.0459 33.9541C50.5142 31.4223 47.0804 30 43.5 30C39.9196 30 36.4858 31.4223 33.9541 33.9541C31.4223 36.4858 30 39.9196 30 43.5C30 47.0804 31.4223 50.5142 33.9541 53.0459C36.4858 55.5777 39.9196 57 43.5 57ZM40.812 37.812L38.121 40.5H42.75C44.938 40.5 47.0365 41.3692 48.5836 42.9164C50.1308 44.4635 51 46.562 51 48.75V49.5C51 49.8978 50.842 50.2794 50.5607 50.5607C50.2794 50.842 49.8978 51 49.5 51C49.1022 51 48.7206 50.842 48.4393 50.5607C48.158 50.2794 48 49.8978 48 49.5V48.75C48 47.3576 47.4469 46.0223 46.4623 45.0377C45.4777 44.0531 44.1424 43.5 42.75 43.5H38.121L40.812 46.188C41.0937 46.4697 41.2519 46.8517 41.2519 47.25C41.2519 47.6483 41.0937 48.0303 40.812 48.312C40.5303 48.5937 40.1483 48.7519 39.75 48.7519C39.3517 48.7519 38.9697 48.5937 38.688 48.312L33.432 43.053C33.1527 42.7715 32.9964 42.3908 32.9976 41.9943C32.9987 41.5977 33.1571 41.2179 33.438 40.938L38.688 35.688C38.9697 35.4063 39.3517 35.2481 39.75 35.2481C40.1483 35.2481 40.5303 35.4063 40.812 35.688C41.0937 35.9697 41.2519 36.3517 41.2519 36.75C41.2519 37.1483 41.0937 37.5303 40.812 37.812Z" fill="#77BC1F"/>
</svg>
