<svg width="12" height="12" viewBox="0 0 12 12" fill="none" xmlns="http://www.w3.org/2000/svg">
<path d="M8.3382 2.41638L9.58409 3.66169L8.3382 2.41638ZM9.13938 1.31931L5.77052 4.68817C5.59646 4.862 5.47774 5.08346 5.42934 5.32465L5.11816 6.88231L6.67583 6.57054C6.91701 6.52231 7.13818 6.40407 7.3123 6.22995L10.6812 2.86109C10.7824 2.75986 10.8627 2.63968 10.9175 2.50741C10.9723 2.37514 11.0005 2.23337 11.0005 2.0902C11.0005 1.94704 10.9723 1.80527 10.9175 1.673C10.8627 1.54073 10.7824 1.42055 10.6812 1.31931C10.5799 1.21808 10.4597 1.13777 10.3275 1.08299C10.1952 1.0282 10.0534 1 9.91027 1C9.7671 1 9.62534 1.0282 9.49307 1.08299C9.3608 1.13777 9.24062 1.21808 9.13938 1.31931V1.31931Z" stroke="black" stroke-linecap="round" stroke-linejoin="round"/>
<path d="M9.82362 8.05868V9.82341C9.82362 10.1354 9.69967 10.4347 9.47904 10.6553C9.2584 10.8759 8.95916 10.9999 8.64714 10.9999H2.17648C1.86446 10.9999 1.56522 10.8759 1.34458 10.6553C1.12395 10.4347 1 10.1354 1 9.82341V3.35275C1 3.04073 1.12395 2.74149 1.34458 2.52085C1.56522 2.30022 1.86446 2.17627 2.17648 2.17627H3.94121" stroke="black" stroke-linecap="round" stroke-linejoin="round"/>
</svg>
