<svg width="24" height="24" viewBox="0 0 24 24" fill="none" xmlns="http://www.w3.org/2000/svg">
<path d="M3.85 9.1H5.15V18.75V18.85H5.25H14.9V20.15L5.2503 20.15L5.25 20.15M3.85 9.1L5.25 20.15M3.85 9.1V18.7498C3.85115 19.1208 3.99903 19.4763 4.26136 19.7386C4.52366 20.0009 4.87907 20.1488 5.25 20.15M3.85 9.1L5.25 20.15" fill="white" fill-opacity="0.75" stroke="#071828" stroke-width="0.2"/>
<path d="M17.5086 16.6L17.4793 16.5707L14.4793 13.5707L14.4215 13.5129L14.4666 13.4448C14.7504 13.0165 14.9012 12.514 14.9 12.0003L17.5086 16.6ZM17.5086 16.6H17.55M17.5086 16.6H17.55M17.55 16.6H22.4V22.4H16.6V17.55V17.5086L16.5707 17.4793L13.5707 14.4793L13.5129 14.4215L13.4448 14.4666C13.0165 14.7504 12.514 14.9012 12.0003 14.9C11.2318 14.8977 10.4954 14.5914 9.95201 14.048C9.40862 13.5046 9.10231 12.7682 9.1 11.9998C9.09883 11.4861 9.24961 10.9835 9.53336 10.5552L9.57851 10.4871L9.52071 10.4293L6.52071 7.42929L6.49142 7.4H6.45H1.6M17.55 16.6L1.6 7.4M1.6 7.4V1.6H7.4V6.45V6.49142L7.42929 6.52071L10.4293 9.52071L10.4871 9.57851L10.5552 9.53336C10.9835 9.24961 11.4861 9.09883 11.9998 9.1C12.7682 9.10231 13.5046 9.40862 14.048 9.95201C14.5914 10.4954 14.8977 11.2318 14.9 12.0002L1.6 7.4ZM6 6.1H6.1V6V3V2.9H6H3H2.9V3V6V6.1H3H6ZM12 13.6L12.0003 13.6C12.4242 13.5987 12.8303 13.4298 13.1301 13.1301C13.4298 12.8303 13.5987 12.4242 13.6 12.0003V12C13.6 11.6835 13.5062 11.3742 13.3304 11.1111C13.1545 10.848 12.9047 10.6429 12.6123 10.5218C12.3199 10.4007 11.9982 10.369 11.6879 10.4307C11.3775 10.4925 11.0924 10.6449 10.8686 10.8686C10.6449 11.0924 10.4925 11.3775 10.4307 11.6879C10.369 11.9982 10.4007 12.3199 10.5218 12.6123C10.6429 12.9047 10.848 13.1545 11.1111 13.3304C11.3742 13.5062 11.6835 13.6 12 13.6ZM21 21.1H21.1V21V18V17.9H21H18H17.9V18V21V21.1H18H21Z" fill="white" fill-opacity="0.75" stroke="#071828" stroke-width="0.2"/>
<path d="M18.85 5.15V5.25V14.9H20.15L20.15 5.2503L20.15 5.25M18.85 5.15L18.75 3.75C19.1475 3.75119 19.5283 3.9096 19.8093 4.19065C20.0904 4.4717 20.2488 4.85254 20.25 5.25H20.15M18.85 5.15H18.75H9.1V3.85H18.7498M18.85 5.15L18.7498 3.85M20.15 5.25C20.1488 4.87907 20.0009 4.52366 19.7386 4.26136C19.4763 3.99903 19.1208 3.85115 18.7498 3.85M20.15 5.25L18.7498 3.85" fill="white" fill-opacity="0.75" stroke="#071828" stroke-width="0.2"/>
</svg>
