<svg width="17" height="16" viewBox="0 0 17 16" fill="none" xmlns="http://www.w3.org/2000/svg">
<g clip-path="url(#clip0_15548_100874)">
<path d="M11.8991 7.46394V5.02241L6.87823 7.46394V4.95138L4.6723 6.25103V0H0.919922V16H16.9199V5.02244L11.8991 7.46394ZM1.85745 0.937531H3.7348V6.80341L1.85745 7.90947V0.937531ZM15.9824 15.0625H1.85745V8.99763L5.94073 6.59188V8.96237L10.9616 6.52084V8.96237L15.9824 6.52087V15.0625Z" fill="#F5F5F5"/>
<path d="M3.74219 10.3711V13.1852H8.45075V10.3711H3.74219ZM7.51322 12.2477H4.67975V11.3086H7.51322V12.2477Z" fill="#F5F5F5"/>
<path d="M9.38965 10.3711V13.1852H14.0982V10.3711H9.38965ZM13.1606 12.2477H10.3272V11.3086H13.1606V12.2477Z" fill="#F5F5F5"/>
</g>
<defs>
<clipPath id="clip0_15548_100874">
<rect x="0.919922" width="16" height="16" rx="8" fill="white"/>
</clipPath>
</defs>
</svg>
