<svg width="22" height="20" viewBox="0 0 22 20" fill="none" xmlns="http://www.w3.org/2000/svg">
<g clip-path="url(#clip0_14539_78966)">
<path d="M14.5182 9.16088V6.32997L7.90843 9.16088V6.24761L5.00436 7.75454V0.506592H0.0644531V19.0583H21.1281V6.33001L14.5182 9.16088ZM1.29869 1.59364H3.77017V8.39501L1.29869 9.67747V1.59364ZM19.8939 17.9712H1.29869V10.9392L6.67423 8.14974V10.8983L13.2841 8.06738V10.8983L19.8939 8.06742V17.9712Z" fill="#77BC1F"/>
<path d="M3.77966 12.5315V15.7944H9.97837V12.5315H3.77966ZM8.74413 14.7073H5.01394V13.6185H8.74413V14.7073Z" fill="#77BC1F"/>
<path d="M11.2144 12.5315V15.7944H17.4131V12.5315H11.2144ZM16.1788 14.7073H12.4486V13.6185H16.1788V14.7073Z" fill="#77BC1F"/>
</g>
<defs>
<clipPath id="clip0_14539_78966">
<rect width="21.0636" height="18.5517" fill="white" transform="translate(0.0644531 0.506592)"/>
</clipPath>
</defs>
</svg>
