<svg width="32" height="32" viewBox="0 0 32 32" fill="none" xmlns="http://www.w3.org/2000/svg">
<path d="M10.6469 12.5094L14.0094 9.14688C14.1031 9.05313 14.2297 9 14.3625 9H21C21.2766 9 21.5 9.22344 21.5 9.5V22.5C21.5 22.7766 21.2766 23 21 23H11C10.7234 23 10.5 22.7766 10.5 22.5V12.8641C10.5 12.7312 10.5531 12.6031 10.6469 12.5094ZM11.6531 13.0938H14.5938V10.1531L11.6531 13.0938ZM11.625 21.875H20.375V10.125H15.6562V13.5C15.6562 13.674 15.5871 13.841 15.464 13.964C15.341 14.0871 15.174 14.1562 15 14.1562H11.625V21.875ZM16.125 17.6562H19C19.0687 17.6562 19.125 17.7125 19.125 17.7812V18.5312C19.125 18.6 19.0687 18.6562 19 18.6562H16.125C16.0563 18.6562 16 18.6 16 18.5312V17.7812C16 17.7125 16.0563 17.6562 16.125 17.6562ZM19.125 15.6562V16.4062C19.125 16.475 19.0687 16.5312 19 16.5312H13C12.9312 16.5312 12.875 16.475 12.875 16.4062V15.6562C12.875 15.5875 12.9312 15.5312 13 15.5312H19C19.0687 15.5312 19.125 15.5875 19.125 15.6562Z" fill="white"/>
<rect x="-0.25" y="0.25" width="31.5" height="31.5" rx="3.75" transform="matrix(-1 0 0 1 31.5 0)" stroke="white" stroke-opacity="0.2" stroke-width="0.5"/>
</svg>
