<svg width="22" height="22" viewBox="0 0 22 22" fill="none" xmlns="http://www.w3.org/2000/svg">
<path fill-rule="evenodd" clip-rule="evenodd" d="M6.72418 16.9894C6.72418 17.7034 7.07224 18.3714 7.65706 18.7826L11.8874 21.2167C13.2643 22.1834 15.2633 21.1524 15.2633 19.3785V12.2299L21.2065 5.40887C22.9225 3.69607 21.6752 0.6875 19.1874 0.6875H2.79882C0.310992 0.6875 -0.936283 3.69607 0.823787 5.45614L6.72418 12.2298V16.9894ZM2.79882 2.57168H19.1874C19.997 2.57168 20.4029 3.55098 19.8301 4.12382L13.6109 11.2581L13.3791 11.5241V19.3785C13.3791 19.6241 13.0985 19.7688 12.8962 19.6275L8.66805 17.1949C8.65699 17.1823 8.60836 17.089 8.60836 16.9894V11.5241L2.20017 4.17102C1.58325 3.55098 1.98925 2.57168 2.79882 2.57168Z" fill="white"/>
</svg>
