<svg width="37" height="27" viewBox="0 0 37 27" fill="none" xmlns="http://www.w3.org/2000/svg">
<path d="M20.4685 19.7241C20.5001 19.9611 20.4211 20.2139 20.2394 20.3798C19.9313 20.6879 19.4336 20.6879 19.1255 20.3798L15.9576 17.2119C15.7759 17.0302 15.6969 16.7853 15.7285 16.5561V12.5113L11.9443 7.66849C11.6757 7.32879 11.7389 6.83108 12.0786 6.56247C12.2287 6.45187 12.3946 6.38867 12.5684 6.38867H23.6286C23.8024 6.38867 23.9683 6.45187 24.1184 6.56247C24.4581 6.83108 24.5213 7.32879 24.2527 7.66849L20.4685 12.5113V19.7241ZM14.18 7.9687L17.3085 11.9662V16.327L18.8885 17.9071V11.9583L22.017 7.9687H14.18Z" fill="#DEDEDE"/>
<rect x="0.25" y="0.25" width="36.5" height="26.5" stroke="#8F8F8F" stroke-width="0.5"/>
</svg>
