<svg width="24" height="24" viewBox="0 0 24 24" fill="none" xmlns="http://www.w3.org/2000/svg">
<path d="M12 22.5C9.21523 22.5 6.54451 21.3938 4.57538 19.4246C2.60625 17.4555 1.5 14.7848 1.5 12C1.5 9.21523 2.60625 6.54451 4.57538 4.57538C6.54451 2.60625 9.21523 1.5 12 1.5C14.7848 1.5 17.4555 2.60625 19.4246 4.57538C21.3938 6.54451 22.5 9.21523 22.5 12C22.5 14.7848 21.3938 17.4555 19.4246 19.4246C17.4555 21.3938 14.7848 22.5 12 22.5ZM12 24C15.1826 24 18.2348 22.7357 20.4853 20.4853C22.7357 18.2348 24 15.1826 24 12C24 8.8174 22.7357 5.76516 20.4853 3.51472C18.2348 1.26428 15.1826 0 12 0C8.8174 0 5.76516 1.26428 3.51472 3.51472C1.26428 5.76516 0 8.8174 0 12C0 15.1826 1.26428 18.2348 3.51472 20.4853C5.76516 22.7357 8.8174 24 12 24Z" fill="white"/>
<path d="M7.8824 8.679C7.88035 8.72744 7.88822 8.77579 7.90555 8.82107C7.92287 8.86636 7.94927 8.90762 7.98313 8.94232C8.01699 8.97703 8.05759 9.00444 8.10244 9.02287C8.14728 9.0413 8.19542 9.05036 8.2439 9.0495H9.4814C9.6884 9.0495 9.8534 8.88 9.8804 8.6745C10.0154 7.6905 10.6904 6.9735 11.8934 6.9735C12.9224 6.9735 13.8644 7.488 13.8644 8.7255C13.8644 9.678 13.3034 10.116 12.4169 10.782C11.4074 11.5155 10.6079 12.372 10.6649 13.7625L10.6694 14.088C10.671 14.1864 10.7112 14.2803 10.7813 14.3493C10.8515 14.4183 10.946 14.457 11.0444 14.457H12.2609C12.3604 14.457 12.4557 14.4175 12.5261 14.3472C12.5964 14.2768 12.6359 14.1815 12.6359 14.082V13.9245C12.6359 12.8475 13.0454 12.534 14.1509 11.6955C15.0644 11.001 16.0169 10.23 16.0169 8.6115C16.0169 6.345 14.1029 5.25 12.0074 5.25C10.1069 5.25 8.0249 6.135 7.8824 8.679ZM10.2179 17.3235C10.2179 18.123 10.8554 18.714 11.7329 18.714C12.6464 18.714 13.2749 18.123 13.2749 17.3235C13.2749 16.4955 12.6449 15.9135 11.7314 15.9135C10.8554 15.9135 10.2179 16.4955 10.2179 17.3235Z" fill="white"/>
</svg>
