<svg width="118" height="119" viewBox="0 0 118 119" fill="none" xmlns="http://www.w3.org/2000/svg">
<circle cx="59" cy="59.7808" r="59" fill="white"/>
<path d="M58.7404 44.0999C57.3266 44.0999 55.9707 44.6615 54.971 45.6612C53.9713 46.6609 53.4097 48.0168 53.4097 49.4306V86.7455C53.4097 88.1593 53.9713 89.5151 54.971 90.5148C55.9707 91.5145 57.3266 92.0762 58.7404 92.0762C60.1542 92.0762 61.51 91.5145 62.5097 90.5148C63.5094 89.5151 64.0711 88.1593 64.0711 86.7455V49.4306C64.0711 48.0168 63.5094 46.6609 62.5097 45.6612C61.51 44.6615 60.1542 44.0999 58.7404 44.0999Z" fill="#77BC1F"/>
<path d="M58.7418 38.7686C61.6859 38.7686 64.0725 36.382 64.0725 33.4379C64.0725 30.4939 61.6859 28.1072 58.7418 28.1072C55.7978 28.1072 53.4111 30.4939 53.4111 33.4379C53.4111 36.382 55.7978 38.7686 58.7418 38.7686Z" fill="#77BC1F"/>
</svg>
