<svg width="89" height="89" viewBox="0 0 89 89" fill="none" xmlns="http://www.w3.org/2000/svg">
<circle cx="44.4832" cy="44.6416" r="44.0042" fill="#77BC1F"/>
<path d="M44.2893 32.9463C43.2348 32.9463 42.2236 33.3652 41.478 34.1108C40.7324 34.8564 40.3135 35.8677 40.3135 36.9221V64.7528C40.3135 65.8073 40.7324 66.8185 41.478 67.5641C42.2236 68.3097 43.2348 68.7286 44.2893 68.7286C45.3437 68.7286 46.355 68.3097 47.1006 67.5641C47.8462 66.8185 48.2651 65.8073 48.2651 64.7528V36.9221C48.2651 35.8677 47.8462 34.8564 47.1006 34.1108C46.355 33.3652 45.3437 32.9463 44.2893 32.9463Z" fill="white"/>
<path d="M44.2903 28.9702C46.4861 28.9702 48.2661 27.1902 48.2661 24.9944C48.2661 22.7986 46.4861 21.0186 44.2903 21.0186C42.0945 21.0186 40.3145 22.7986 40.3145 24.9944C40.3145 27.1902 42.0945 28.9702 44.2903 28.9702Z" fill="white"/>
</svg>
