<svg width="24" height="24" viewBox="0 0 24 24" fill="none" xmlns="http://www.w3.org/2000/svg">
<path d="M9.5895 15.3066L6.28284 11.9999L9.5895 8.69326L10.7177 9.82941L8.68858 11.8585L8.54716 11.9999L8.68858 12.1413L10.7177 14.1704L9.5895 15.3066ZM14.4105 8.69326L17.7172 11.9999L14.4105 15.3066L13.2823 14.1704L15.3114 12.1413L15.4528 11.9999L15.3114 11.8585L13.2823 9.82941L14.4105 8.69326Z" fill="white" fill-opacity="0.75" stroke="#071828" stroke-width="0.4"/>
<path d="M14.6319 3.06809L14.6797 3.2H14.82H19C19.9895 3.2 20.8 4.01046 20.8 5V19C20.8 19.9895 19.9895 20.8 19 20.8H5C4.87171 20.8 4.7534 20.791 4.63538 20.7731C4.28926 20.701 3.97628 20.5227 3.73333 20.2805C3.56652 20.1041 3.43276 19.9146 3.34462 19.7031C3.25379 19.4851 3.2 19.2412 3.2 19V5C3.2 4.74888 3.25376 4.51594 3.34341 4.30975L3.34343 4.30975L3.34449 4.30721C3.45761 4.03692 3.63473 3.79817 3.86059 3.61152C4.08646 3.42487 4.3543 3.2959 4.64107 3.23574L4.64108 3.23578L4.64497 3.23488C4.7556 3.20935 4.86951 3.2 5 3.2H9.18H9.32029L9.36805 3.06809C9.7611 1.98253 10.7891 1.2 12 1.2C13.2109 1.2 14.2389 1.98253 14.6319 3.06809ZM19 19.2H19.2V19V15V5V4.8H19H5H4.8V5V19V19.2H5H19ZM12.95 3.5C12.95 2.97954 12.5205 2.55 12 2.55C11.4795 2.55 11.05 2.97954 11.05 3.5C11.05 4.02046 11.4795 4.45 12 4.45C12.5205 4.45 12.95 4.02046 12.95 3.5Z" fill="white" fill-opacity="0.75" stroke="#071828" stroke-width="0.4"/>
</svg>
