<svg width="24" height="24" viewBox="0 0 24 24" fill="none" xmlns="http://www.w3.org/2000/svg">
<path d="M5 4.75H4.75V5V19V19.25H5H10.75V20.75H3.25V3.25H9.18H9.35537L9.41507 3.08511C9.80137 2.01817 10.8114 1.25 12 1.25C13.1886 1.25 14.1986 2.01817 14.5849 3.08511L14.6446 3.25H14.82H20.75V9.75H19.25V5V4.75H19H17H16.75V5V7.75H7.25V5V4.75H7H5ZM13.25 4C13.25 3.31193 12.6881 2.75 12 2.75C11.3119 2.75 10.75 3.31193 10.75 4C10.75 4.68807 11.3119 5.25 12 5.25C12.6881 5.25 13.25 4.68807 13.25 4Z" fill="white" fill-opacity="0.75" stroke="#071828" stroke-width="0.5"/>
<path d="M15.3335 17.1771L15.5105 17.3534L15.6869 17.1766L21.0002 11.8537L22.1466 13.0001L15.5097 19.6465L11.3537 15.4998L12.5003 14.3533L15.3335 17.1771Z" fill="white" fill-opacity="0.75" stroke="#071828" stroke-width="0.5"/>
</svg>
