<svg width="72" height="72" viewBox="0 0 72 72" fill="none" xmlns="http://www.w3.org/2000/svg">
<path d="M42.9333 24H29.0666L22.1333 36L29.0666 48H42.9333L49.8666 36L42.9333 24ZM41.4 45.3333H30.6L25.2133 36L30.6 26.6667H41.3866L46.7733 36L41.4 45.3333Z" fill="white"/>
<path d="M72 36C72 55.8823 55.8823 72 36 72C16.1177 72 0 55.8823 0 36C0 16.1177 16.1177 0 36 0C55.8823 0 72 16.1177 72 36ZM3.6 36C3.6 53.894 18.106 68.4 36 68.4C53.894 68.4 68.4 53.894 68.4 36C68.4 18.106 53.894 3.6 36 3.6C18.106 3.6 3.6 18.106 3.6 36Z" fill="#333333"/>
</svg>
