<svg width="32" height="32" viewBox="0 0 32 32" fill="none" xmlns="http://www.w3.org/2000/svg">
<rect x="0.25" y="0.25" width="31.5" height="31.5" rx="3.75" stroke="white" stroke-opacity="0.2" stroke-width="0.5"/>
<path d="M12.1107 15.4537L18.3409 9.22366C18.485 9.07945 18.6774 9 18.8825 9C19.0876 9 19.2799 9.07945 19.424 9.22366L19.8828 9.68235C20.1814 9.98124 20.1814 10.467 19.8828 10.7655L14.6512 15.9971L19.8886 21.2345C20.0327 21.3787 20.1123 21.571 20.1123 21.776C20.1123 21.9812 20.0327 22.1734 19.8886 22.3178L19.4298 22.7763C19.2856 22.9206 19.0934 23 18.8883 23C18.6832 23 18.4908 22.9206 18.3467 22.7763L12.1107 16.5406C11.9663 16.3959 11.887 16.2028 11.8874 15.9974C11.887 15.7913 11.9663 15.5983 12.1107 15.4537Z" fill="white"/>
</svg>
