<svg width="24" height="24" viewBox="0 0 24 24" fill="none" xmlns="http://www.w3.org/2000/svg">
<path d="M19.25 5V4.75H19H15H14.75V5V7V7.25H15H19H19.25V7V5ZM9.25 5V4.75H9H5H4.75V5V11V11.25H5H9H9.25V11V5ZM19.25 13V12.75H19H15H14.75V13V19V19.25H15H19H19.25V19V13ZM9.25 17V16.75H9H5H4.75V17V19V19.25H5H9H9.25V19V17ZM13.25 8.75V3.25H20.75V8.75H13.25ZM10.75 3.25V12.75H3.25V3.25H10.75ZM13.25 20.75V11.25H20.75V20.75H13.25ZM3.25 20.75V15.25H10.75V20.75H3.25Z" fill="white" fill-opacity="0.75" stroke="#071828" stroke-width="0.5"/>
</svg>
