<svg width="319" height="318" viewBox="0 0 319 318" fill="none" xmlns="http://www.w3.org/2000/svg">
<path d="M298.528 181.286L298.478 181.322L298.431 181.361C288.157 190.055 276.309 197.162 263.287 201.897L263.273 201.902L263.258 201.908C251.047 206.635 237.633 209.007 223.4 209.007C191.412 209.007 162.19 195.975 141.261 175.046C120.332 154.117 107.3 124.895 107.3 92.9066C107.3 79.4838 109.669 66.4462 113.621 54.5877C117.966 41.9508 124.278 30.5178 132.549 20.6714L132.555 20.6639L132.561 20.6564C136.713 15.5822 135.757 8.24277 130.75 4.14563L130.712 4.11452L130.672 4.08596C127.578 1.87626 123.933 0.927042 120.236 1.85135L120.222 1.85486L120.208 1.85863C85.8801 11.1474 56.0074 31.7401 34.6169 59.1844L34.6116 59.1912L34.6064 59.198C14.021 86.2417 1.5 119.757 1.5 156.507C1.5 200.519 19.2685 240.496 48.3393 269.567C77.4102 298.638 117.388 316.407 161.4 316.407C198.554 316.407 232.875 303.482 260.322 282.09L260.324 282.088C288.175 260.292 308.357 229.221 316.844 193.717C319.06 186.961 315.439 180.452 308.939 179.045C305.25 178.131 301.615 179.081 298.528 181.286ZM246.477 262.924L246.468 262.931C223.523 281.129 194.249 292.207 162.2 292.207C124.618 292.207 90.5943 276.78 66.0607 252.246C41.5271 227.712 26.1 193.688 26.1 156.107C26.1 124.845 36.386 96.3671 54.1851 73.4261L54.1856 73.4254C65.5626 58.7454 79.655 46.4554 95.8285 37.4942C94.4501 40.6084 93.1184 43.8105 91.9828 47.2147C86.7214 61.7919 84.3 77.1608 84.3 93.3066C84.3 131.72 100.07 166.897 125.139 191.967C150.209 217.037 185.386 232.807 223.8 232.807C240.768 232.807 256.949 229.978 271.931 224.31L271.938 224.307L271.975 224.293C275.706 222.858 279.479 221.407 283.117 219.797C273.824 236.404 261.503 251.196 246.477 262.924Z" fill="black" stroke="black" stroke-width="3"/>
</svg>
