<svg width="72" height="72" viewBox="0 0 72 72" fill="none" xmlns="http://www.w3.org/2000/svg">
<path d="M28.5333 40.3378V29.4222H41.6889L43.0933 28H27.1111V40.3378H28.5333Z" fill="white"/>
<path d="M25.3332 26.2221H46.6665V40.4443H48.4443V25.7777C48.4443 25.424 48.3038 25.0849 48.0538 24.8349C47.8037 24.5848 47.4646 24.4443 47.111 24.4443H24.8888C24.5351 24.4443 24.196 24.5848 23.9459 24.8349C23.6959 25.0849 23.5554 25.424 23.5554 25.7777V40.4443H25.3332V26.2221Z" fill="white"/>
<path d="M20.8889 42.2222V45.2444C20.8889 45.8573 21.1324 46.4452 21.5658 46.8786C21.9992 47.312 22.5871 47.5555 23.2 47.5555H48.7467C49.3596 47.5555 49.9475 47.312 50.3809 46.8786C50.8143 46.4452 51.0578 45.8573 51.0578 45.2444V42.2222H20.8889ZM49.3334 45.2444C49.3334 45.3858 49.2772 45.5215 49.1772 45.6215C49.0771 45.7215 48.9415 45.7777 48.8 45.7777H23.1645C23.023 45.7777 22.8874 45.7215 22.7873 45.6215C22.6873 45.5215 22.6311 45.3858 22.6311 45.2444V43.5822H31.4756C31.5867 43.8444 31.7722 44.0683 32.0092 44.2263C32.2461 44.3842 32.5241 44.4693 32.8089 44.4711H39.1467C39.4315 44.4693 39.7095 44.3842 39.9465 44.2263C40.1834 44.0683 40.3689 43.8444 40.48 43.5822H49.3334V45.2444Z" fill="white"/>
<path d="M72 36C72 55.8823 55.8823 72 36 72C16.1177 72 0 55.8823 0 36C0 16.1177 16.1177 0 36 0C55.8823 0 72 16.1177 72 36ZM3.6 36C3.6 53.894 18.106 68.4 36 68.4C53.894 68.4 68.4 53.894 68.4 36C68.4 18.106 53.894 3.6 36 3.6C18.106 3.6 3.6 18.106 3.6 36Z" fill="#333333"/>
</svg>
