<svg width="40" height="40" viewBox="0 0 40 40" fill="none" xmlns="http://www.w3.org/2000/svg">
<path d="M10.6669 25.4222V11.7778H27.1114L28.8669 10H8.88916V25.4222H10.6669Z" fill="#77BC1F"/>
<path d="M6.6668 7.77764H33.3335V25.5554H35.5557V7.22209C35.5557 6.78006 35.3801 6.35614 35.0675 6.04358C34.755 5.73101 34.3311 5.55542 33.889 5.55542H6.11125C5.66922 5.55542 5.2453 5.73101 4.93274 6.04358C4.62017 6.35614 4.44458 6.78006 4.44458 7.22209V25.5554H6.6668V7.77764Z" fill="#77BC1F"/>
<path d="M1.11084 27.7778V31.5556C1.11084 32.3218 1.4152 33.0566 1.95698 33.5984C2.49875 34.1401 3.23355 34.4445 3.99973 34.4445H35.9331C36.6992 34.4445 37.434 34.1401 37.9758 33.5984C38.5176 33.0566 38.822 32.3218 38.822 31.5556V27.7778H1.11084ZM36.6664 31.5556C36.6664 31.7324 36.5962 31.902 36.4711 32.027C36.3461 32.152 36.1765 32.2223 35.9997 32.2223H3.95528C3.77847 32.2223 3.6089 32.152 3.48388 32.027C3.35886 31.902 3.28862 31.7324 3.28862 31.5556V29.4778H14.3442C14.4831 29.8056 14.715 30.0855 15.0111 30.2829C15.3073 30.4804 15.6549 30.5868 16.0108 30.5889H23.9331C24.289 30.5868 24.6366 30.4804 24.9328 30.2829C25.229 30.0855 25.4608 29.8056 25.5997 29.4778H36.6664V31.5556Z" fill="#77BC1F"/>
</svg>
