<svg width="40" height="44" viewBox="0 0 40 44" fill="none" xmlns="http://www.w3.org/2000/svg">
<path d="M39.0605 27.9395L35 23.879V18.5C34.9953 14.7828 33.6125 11.1993 31.1189 8.44247C28.6254 5.68567 25.1981 3.9514 21.5 3.575V0.5H18.5V3.575C14.8019 3.9514 11.3746 5.68567 8.88105 8.44247C6.38747 11.1993 5.00465 14.7828 5 18.5V23.879L0.9395 27.9395C0.658176 28.2207 0.500085 28.6022 0.5 29V33.5C0.5 33.8978 0.658035 34.2794 0.93934 34.5607C1.22064 34.842 1.60218 35 2 35H12.5V36.1655C12.4674 38.0685 13.1381 39.9165 14.3837 41.3556C15.6292 42.7946 17.362 43.7234 19.25 43.964C20.2928 44.0674 21.3456 43.9514 22.3409 43.6235C23.3361 43.2956 24.2517 42.763 25.0288 42.0599C25.8058 41.3569 26.4272 40.499 26.8528 39.5415C27.2784 38.5839 27.4988 37.5479 27.5 36.5V35H38C38.3978 35 38.7794 34.842 39.0607 34.5607C39.342 34.2794 39.5 33.8978 39.5 33.5V29C39.4999 28.6022 39.3418 28.2207 39.0605 27.9395ZM24.5 36.5C24.5 37.6935 24.0259 38.8381 23.182 39.682C22.3381 40.5259 21.1935 41 20 41C18.8065 41 17.6619 40.5259 16.818 39.682C15.9741 38.8381 15.5 37.6935 15.5 36.5V35H24.5V36.5ZM36.5 32H3.5V29.621L7.5605 25.5605C7.84182 25.2793 7.99992 24.8978 8 24.5V18.5C8 15.3174 9.26428 12.2652 11.5147 10.0147C13.7652 7.76428 16.8174 6.5 20 6.5C23.1826 6.5 26.2348 7.76428 28.4853 10.0147C30.7357 12.2652 32 15.3174 32 18.5V24.5C32.0001 24.8978 32.1582 25.2793 32.4395 25.5605L36.5 29.621V32Z" fill="white"/>
</svg>
