<svg width="32" height="32" viewBox="0 0 32 32" fill="none" xmlns="http://www.w3.org/2000/svg">
<path d="M22.222 10.2222H9.77756C9.54181 10.2222 9.31572 10.3158 9.14902 10.4825C8.98232 10.6492 8.88867 10.8753 8.88867 11.1111V20.8888C8.88867 21.1246 8.98232 21.3507 9.14902 21.5174C9.31572 21.6841 9.54181 21.7777 9.77756 21.7777H22.222C22.4578 21.7777 22.6838 21.6841 22.8505 21.5174C23.0172 21.3507 23.1109 21.1246 23.1109 20.8888V11.1111C23.1109 10.8753 23.0172 10.6492 22.8505 10.4825C22.6838 10.3158 22.4578 10.2222 22.222 10.2222ZM9.77756 11.1111H22.222V12.0888H9.77756V11.1111ZM9.77756 20.8888V12.7999H22.222V20.8888H9.77756Z" fill="white"/>
<path d="M15.5557 18.2222H18.2223V19.1111H15.5557V18.2222Z" fill="white"/>
<path d="M11.1113 14.969L14.1291 16.3557L11.1113 17.7379V18.7157L15.378 16.7557V15.9512L11.1113 13.9912V14.969Z" fill="white"/>
<rect x="0.25" y="0.25" width="31.5" height="31.5" rx="3.75" stroke="white" stroke-opacity="0.2" stroke-width="0.5"/>
</svg>
