<svg width="32" height="32" viewBox="0 0 32 32" fill="none" xmlns="http://www.w3.org/2000/svg">
<path fill-rule="evenodd" clip-rule="evenodd" d="M10.4999 9.00708L23.4989 9.17708L23.9289 9.67808L22.1089 22.5501L21.5389 23.0391L8.53889 22.8691L8.10889 22.3671L9.92989 9.49508L10.4999 9.00708ZM9.17989 21.8851L21.1779 22.0421L22.8579 10.1601L10.8599 10.0031L9.17989 21.8851ZM14.9709 18.3951L14.8309 19.3861L19.8309 19.4521L19.9709 18.4621L14.9709 18.3961V18.3951ZM16.6809 15.9381L13.0179 13.0081L12.3259 13.8041L14.9619 15.9161L11.7389 17.9501L12.2039 18.7621L16.6799 15.9381H16.6809Z" fill="white"/>
<rect x="0.25" y="0.25" width="31.5" height="31.5" rx="3.75" stroke="white" stroke-opacity="0.2" stroke-width="0.5"/>
</svg>
