<svg width="24" height="24" viewBox="0 0 24 24" fill="none" xmlns="http://www.w3.org/2000/svg">
<path d="M18.328 18.781L18.2448 18.6562C19.0461 18.122 19.7032 17.3983 20.1576 16.5492C20.6121 15.7002 20.8499 14.752 20.85 13.789V3.80203C20.85 3.60867 20.784 3.42109 20.663 3.27027C20.542 3.11945 20.3732 3.01439 20.1845 2.97243L12 1.15366L3.81555 2.97243C3.81555 2.97243 3.81554 2.97243 3.81554 2.97243C3.62679 3.01439 3.45799 3.11945 3.33699 3.27027C3.216 3.42109 3.15004 3.60865 3.15 3.802L18.328 18.781ZM18.328 18.781L18.2448 18.6562L12 22.8197L5.75521 18.6562L5.672 18.781L5.7552 18.6562C4.95402 18.1221 4.29705 17.3985 3.84259 16.5497C3.38814 15.7008 3.15024 14.7529 3.15 13.79C3.15 13.79 3.15 13.79 3.15 13.79V3.80203L18.328 18.781ZM4.96749 4.45757L4.85 4.48365V4.604V13.789C4.85001 14.4722 5.01867 15.1447 5.34101 15.7471C5.66335 16.3494 6.12939 16.8628 6.69779 17.2418L11.9168 20.7218L12 20.7773L12.0832 20.7218L17.3022 17.2418C17.8705 16.8629 18.3364 16.3497 18.6587 15.7475C18.9811 15.1454 19.1498 14.473 19.15 13.79V13.79V4.604V4.48365L19.0325 4.45757L12.0325 2.90357L12 2.89635L11.9675 2.90357L4.96749 4.45757ZM12.85 10V10.15H13H15.7085L11.15 16.5319V12V11.85H11H8.29148L12.85 5.46807V10Z" fill="white" fill-opacity="0.75" stroke="#071828" stroke-width="0.3"/>
</svg>
