<svg width="24" height="24" viewBox="0 0 24 24" fill="none" xmlns="http://www.w3.org/2000/svg">
<path d="M0.747234 8.55856L0.748405 5.24449L2.24841 5.24506L2.24761 7.50312L5.35486 8.61776L7.49841 8.61809V7.16665C7.49738 6.11303 7.86398 5.09207 8.535 4.27976L6.51333 2.24478H4.5052V0.744775H7.13756L9.6682 3.29215C10.3759 2.85698 11.1895 2.62443 12.0203 2.61985C12.8511 2.61527 13.6672 2.83884 14.3797 3.26618L16.8667 0.742432L19.4991 0.744775L19.4977 2.24478L17.4939 2.24299L15.5239 4.24226C16.2146 5.06011 16.5931 6.09629 16.5922 7.16679V8.61945L18.6188 8.61977L21.75 7.50443V5.24637H23.25V8.5624L19.4984 9.89876L19.498 13.8698H23.2484V15.3698H19.4979V15.7452C19.4988 16.6243 19.3449 17.4967 19.0433 18.3224L23.2484 19.9429V23.2448H21.7484V20.9725L18.3861 19.6767C17.7929 20.6435 16.988 21.4629 16.032 22.0732C15.076 22.6835 13.9939 23.0688 12.8674 23.1999C11.7408 23.331 10.5991 23.2045 9.52853 22.8301C8.45793 22.4556 7.48636 21.8429 6.68709 21.0382C6.27543 20.6259 5.91275 20.1674 5.60625 19.672L2.24822 20.9717V23.2448H0.748219V19.9438L4.94906 18.3179C4.64758 17.4903 4.495 16.6159 4.49841 15.7351V15.3698H0.748405V13.8698H4.49841V9.90415L0.747234 8.55856ZM12.75 21.7046C15.7035 21.3392 17.9979 18.8063 17.9979 15.7454L17.9984 10.1199H16.5921V10.1202H12.75V21.7046ZM15.0922 8.61921V7.16665C15.0922 6.35857 14.7711 5.58358 14.1997 5.01218C13.6283 4.44078 12.8534 4.11978 12.0453 4.11978C11.2372 4.11978 10.4622 4.44078 9.89082 5.01218C9.31942 5.58358 8.99841 6.35857 8.99841 7.16665V8.61827L15.0922 8.61921ZM5.99841 15.7371C5.99834 17.2001 6.53159 18.6129 7.49829 19.7109C8.465 20.809 9.79884 21.5169 11.25 21.7022V10.1198H7.4985V10.1181H5.9985L5.99841 15.7371Z" fill="#D9391D"/>
</svg>
