<svg width="17" height="16" viewBox="0 0 17 16" fill="none" xmlns="http://www.w3.org/2000/svg">
<path d="M4.50562 4.91043C4.50562 4.61863 4.74217 4.38208 5.03397 4.38208H6.42143C6.71323 4.38208 6.94979 4.61863 6.94979 4.91043C6.94979 5.20223 6.71323 5.43879 6.42143 5.43879H5.03397C4.74217 5.43879 4.50562 5.20223 4.50562 4.91043Z" fill="#77BC1F"/>
<path d="M4.50562 7.31326C4.50562 7.02146 4.74217 6.78491 5.03397 6.78491H6.42143C6.71323 6.78491 6.94979 7.02146 6.94979 7.31326C6.94979 7.60507 6.71323 7.84162 6.42143 7.84162H5.03397C4.74217 7.84162 4.50562 7.60507 4.50562 7.31326Z" fill="#77BC1F"/>
<path d="M4.50562 9.7161C4.50562 9.4243 4.74217 9.18774 5.03397 9.18774H6.42143C6.71323 9.18774 6.94979 9.4243 6.94979 9.7161C6.94979 10.0079 6.71324 10.2444 6.42143 10.2444H5.03397C4.74217 10.2444 4.50562 10.0079 4.50562 9.7161Z" fill="#77BC1F"/>
<path d="M4.50562 12.1189C4.50562 11.8271 4.74217 11.5906 5.03397 11.5906H6.42143C6.71323 11.5906 6.94979 11.8271 6.94979 12.1189C6.94979 12.4107 6.71323 12.6473 6.42143 12.6473H5.03397C4.74217 12.6473 4.50562 12.4107 4.50562 12.1189Z" fill="#77BC1F"/>
<path d="M13.1842 14.0544C11.121 14.0544 9.44847 12.3819 9.44847 10.3187V8.09627C9.44847 6.61778 10.6461 5.41873 12.1246 5.41695C13.6056 5.41517 14.8071 6.61526 14.8071 8.09627V10.7256C14.8071 11.0089 15.0367 11.2385 15.3199 11.2385C15.6031 11.2385 15.8327 11.0089 15.8327 10.7256V4.88476C15.8327 4.59651 15.5989 4.35639 15.3193 4.35639L8.93503 4.36407C8.65206 4.36442 8.42283 4.60084 8.42283 4.89244V11.3594C8.42283 12.8478 7.21622 14.0544 5.72779 14.0544C4.23935 14.0544 3.03274 12.8478 3.03274 11.3594V5.64912C3.03274 4.43777 3.84094 3.37525 5.00833 3.05188L7.76624 2.28792C8.09638 2.19647 8.42283 2.44788 8.42283 2.79045C8.42283 3.07367 8.65243 3.3056 8.93565 3.3056C9.21887 3.3056 9.44847 3.076 9.44847 2.79278V1.41686C9.44847 1.07503 9.12331 0.817768 8.80249 0.906621L2.38676 2.6838C2.16279 2.74586 2.0071 2.95508 2.0071 3.19404V13.5108C2.0071 13.8111 1.76373 14.0544 1.46351 14.0544H1.44827C1.15647 14.0544 0.919922 14.291 0.919922 14.5828C0.919922 14.8746 1.15647 15.1111 1.44827 15.1111H16.3916C16.6834 15.1111 16.9199 14.8746 16.9199 14.5828C16.9199 14.291 16.6834 14.0544 16.3916 14.0544H13.1842Z" fill="#77BC1F"/>
<path d="M14.8071 12.6816C14.8071 12.4098 15.0275 12.1895 15.2993 12.1895H15.3406C15.6124 12.1895 15.8328 12.4098 15.8328 12.6816C15.8328 12.9534 15.6124 13.1738 15.3406 13.1738H15.2993C15.0275 13.1738 14.8071 12.9534 14.8071 12.6816Z" fill="#77BC1F"/>
<path d="M10.8899 7.31327C10.8899 7.02146 11.1264 6.78491 11.4182 6.78491H12.8057C13.0975 6.78491 13.3341 7.02146 13.3341 7.31327C13.3341 7.60507 13.0975 7.84162 12.8057 7.84162H11.4182C11.1264 7.84162 10.8899 7.60507 10.8899 7.31327Z" fill="#77BC1F"/>
<path d="M10.8899 9.7161C10.8899 9.4243 11.1264 9.18774 11.4182 9.18774H12.8057C13.0975 9.18774 13.3341 9.4243 13.3341 9.7161C13.3341 10.0079 13.0975 10.2444 12.8057 10.2444H11.4182C11.1264 10.2444 10.8899 10.0079 10.8899 9.7161Z" fill="#77BC1F"/>
<path d="M10.8899 12.1189C10.8899 11.8271 11.1264 11.5906 11.4182 11.5906H12.8057C13.0975 11.5906 13.3341 11.8271 13.3341 12.1189C13.3341 12.4107 13.0975 12.6473 12.8057 12.6473H11.4182C11.1264 12.6473 10.8899 12.4107 10.8899 12.1189Z" fill="#77BC1F"/>
</svg>
