<svg width="32" height="32" viewBox="0 0 32 32" fill="none" xmlns="http://www.w3.org/2000/svg">
<path d="M16 8.25381L16 8.25381C14.5611 8.25335 13.1506 8.65366 11.9264 9.40986C10.7307 10.1485 9.75901 11.1983 9.11473 12.446L10.3404 13.0588C10.8708 12.0386 11.6675 11.1801 12.6468 10.575C13.6544 9.95245 14.8155 9.62281 16 9.62306L16 8.25381ZM16 8.25381C17.4387 8.2535 18.8491 8.65387 20.0731 9.41007C21.2687 10.1487 22.2403 11.1984 22.8845 12.446M16 8.25381L22.8845 12.446M22.8845 12.446L21.6596 13.0588C21.1292 12.0386 20.3325 11.1801 19.3532 10.575C18.3456 9.95245 17.1845 9.62281 16 9.62306L22.8845 12.446ZM12.7615 17.5693V23.7463H11.3923V16.7847C11.3923 16.6031 11.4644 16.429 11.5928 16.3006C11.7212 16.1722 11.8953 16.1 12.0769 16.1H19.9231C20.1047 16.1 20.2788 16.1722 20.4072 16.3006C20.5356 16.429 20.6077 16.6031 20.6077 16.7847V23.7463H19.2385V17.5693V17.4693H19.1385H12.8615H12.7615V17.5693ZM13.1485 14.4628L11.9233 13.8499C12.3065 13.1235 12.8773 12.5122 13.577 12.0799C14.3051 11.6302 15.1441 11.392 16 11.3923H16C16.8559 11.392 17.6949 11.6302 18.423 12.0799C19.1227 12.5122 19.6935 13.1235 20.0767 13.8499L18.8508 14.4629C18.5818 13.9636 18.1861 13.5431 17.7028 13.2442C17.1911 12.9278 16.6013 12.7602 15.9996 12.7602C15.3979 12.7602 14.8082 12.9278 14.2964 13.2442C13.8131 13.5431 13.4174 13.9636 13.1485 14.4628ZM15.9 19.2385V20.6078H14.5308V19.2385H15.9Z" fill="white" stroke="#061320" stroke-width="0.2"/>
<rect x="0.25" y="0.25" width="31.5" height="31.5" rx="3.75" stroke="white" stroke-opacity="0.2" stroke-width="0.5"/>
</svg>
