<svg width="24" height="24" viewBox="0 0 24 24" fill="none" xmlns="http://www.w3.org/2000/svg">
<path d="M7.65 13.6502H13.35V14.8502H7.65V13.6502Z" fill="white" fill-opacity="0.75" stroke="#071828" stroke-width="0.3"/>
<path d="M7.65 9.90024H16.35V11.1002H7.65V9.90024Z" fill="white" fill-opacity="0.75" stroke="#071828" stroke-width="0.3"/>
<path d="M7.65 17.4002H11.1V18.6002H7.65V17.4002Z" fill="white" fill-opacity="0.75" stroke="#071828" stroke-width="0.3"/>
<path d="M16.35 3.75024V3.90024H16.5H18.75C19.108 3.90024 19.4514 4.04248 19.7046 4.29565C19.9578 4.54882 20.1 4.8922 20.1 5.25024V21.0002C20.1 21.3583 19.9578 21.7017 19.7046 21.9548C19.4514 22.208 19.108 22.3502 18.75 22.3502H5.25C4.89196 22.3502 4.54858 22.208 4.29541 21.9548C4.04223 21.7017 3.9 21.3583 3.9 21.0002V5.25024C3.9 4.8922 4.04223 4.54882 4.29541 4.29565C4.54858 4.04248 4.89196 3.90024 5.25 3.90024H7.5H7.65V3.75024V3.00024C7.65 2.6422 7.79223 2.29882 8.04541 2.04565C8.29858 1.79248 8.64196 1.65024 9 1.65024H15C15.358 1.65024 15.7014 1.79248 15.9546 2.04565C16.2078 2.29882 16.35 2.6422 16.35 3.00024V3.75024ZM9 2.85024H8.85V3.00024V6.00024V6.15024H9H15H15.15V6.00024V3.00024V2.85024H15H9ZM18.75 21.1502H18.9V21.0002V5.25024V5.10024H18.75H16.5H16.35V5.25024V7.35024H7.65V5.25024V5.10024H7.5H5.25H5.1V5.25024V21.0002V21.1502H5.25H18.75Z" fill="white" fill-opacity="0.75" stroke="#071828" stroke-width="0.3"/>
</svg>
