<svg width="17" height="16" viewBox="0 0 17 16" fill="none" xmlns="http://www.w3.org/2000/svg">
<path d="M4.50586 4.91019C4.50586 4.61839 4.74241 4.38184 5.03421 4.38184H6.42168C6.71348 4.38184 6.95003 4.61839 6.95003 4.91019C6.95003 5.20199 6.71348 5.43854 6.42168 5.43854H5.03421C4.74241 5.43854 4.50586 5.20199 4.50586 4.91019Z" fill="white"/>
<path d="M4.50586 7.31302C4.50586 7.02122 4.74241 6.78467 5.03421 6.78467H6.42168C6.71348 6.78467 6.95003 7.02122 6.95003 7.31302C6.95003 7.60482 6.71348 7.84137 6.42168 7.84137H5.03421C4.74241 7.84137 4.50586 7.60482 4.50586 7.31302Z" fill="white"/>
<path d="M4.50586 9.71585C4.50586 9.42405 4.74241 9.1875 5.03421 9.1875H6.42168C6.71348 9.1875 6.95003 9.42405 6.95003 9.71585C6.95003 10.0077 6.71348 10.2442 6.42168 10.2442H5.03421C4.74241 10.2442 4.50586 10.0077 4.50586 9.71585Z" fill="white"/>
<path d="M4.50586 12.1187C4.50586 11.8269 4.74241 11.5903 5.03421 11.5903H6.42168C6.71348 11.5903 6.95003 11.8269 6.95003 12.1187C6.95003 12.4105 6.71348 12.647 6.42168 12.647H5.03421C4.74241 12.647 4.50586 12.4105 4.50586 12.1187Z" fill="white"/>
<path d="M13.1842 14.0542C11.121 14.0542 9.44847 12.3816 9.44847 10.3185V8.09602C9.44847 6.61754 10.6461 5.41849 12.1246 5.41671V5.41671C13.6056 5.41493 14.8071 6.61502 14.8071 8.09602V10.7254C14.8071 11.0086 15.0367 11.2382 15.3199 11.2382V11.2382C15.6031 11.2382 15.8327 11.0086 15.8327 10.7254V4.88452C15.8327 4.59627 15.5989 4.35615 15.3193 4.35615L8.93503 4.36382C8.65206 4.36417 8.42283 4.6006 8.42283 4.89219V11.3591C8.42283 12.8476 7.21622 14.0542 5.72779 14.0542V14.0542C4.23935 14.0542 3.03274 12.8476 3.03274 11.3591V5.64887C3.03274 4.43752 3.84094 3.37501 5.00833 3.05163L7.76624 2.28768C8.09638 2.19623 8.42283 2.44763 8.42283 2.79021V2.79021C8.42283 3.07343 8.65243 3.30536 8.93565 3.30536V3.30536C9.21887 3.30536 9.44847 3.07576 9.44847 2.79254V1.41662C9.44847 1.07479 9.12331 0.817523 8.80249 0.906377L2.38676 2.68356C2.16279 2.74562 2.0071 2.95484 2.0071 3.1938V13.5106C2.0071 13.8108 1.76373 14.0542 1.46351 14.0542H1.44827C1.15647 14.0542 0.919922 14.2907 0.919922 14.5825V14.5825C0.919922 14.8743 1.15647 15.1109 1.44827 15.1109H16.3916C16.6834 15.1109 16.9199 14.8743 16.9199 14.5825V14.5825C16.9199 14.2907 16.6834 14.0542 16.3916 14.0542H13.1842Z" fill="white"/>
<path d="M14.8066 12.6816C14.8066 12.4098 15.027 12.1895 15.2988 12.1895H15.3401C15.6119 12.1895 15.8323 12.4098 15.8323 12.6816C15.8323 12.9534 15.6119 13.1738 15.3401 13.1738H15.2988C15.027 13.1738 14.8066 12.9534 14.8066 12.6816Z" fill="white"/>
<path d="M10.8896 7.31302C10.8896 7.02122 11.1262 6.78467 11.418 6.78467H12.8055C13.0973 6.78467 13.3338 7.02122 13.3338 7.31302C13.3338 7.60482 13.0973 7.84137 12.8055 7.84137H11.418C11.1262 7.84137 10.8896 7.60482 10.8896 7.31302Z" fill="white"/>
<path d="M10.8896 9.71585C10.8896 9.42405 11.1262 9.1875 11.418 9.1875H12.8055C13.0973 9.1875 13.3338 9.42405 13.3338 9.71585C13.3338 10.0077 13.0973 10.2442 12.8055 10.2442H11.418C11.1262 10.2442 10.8896 10.0077 10.8896 9.71585Z" fill="white"/>
<path d="M10.8896 12.1187C10.8896 11.8269 11.1262 11.5903 11.418 11.5903H12.8055C13.0973 11.5903 13.3338 11.8269 13.3338 12.1187C13.3338 12.4105 13.0973 12.647 12.8055 12.647H11.418C11.1262 12.647 10.8896 12.4105 10.8896 12.1187Z" fill="white"/>
</svg>
