<svg width="20" height="18" viewBox="0 0 20 18" fill="none" xmlns="http://www.w3.org/2000/svg">
<path d="M4.53186 4.34009H7.54295V5.60434H4.53186V4.34009Z" fill="#77BC1F"/>
<path d="M4.53186 7.21484H7.54295V8.4791H4.53186V7.21484Z" fill="#77BC1F"/>
<path d="M4.53186 10.0898H7.54295V11.3541H4.53186V10.0898Z" fill="#77BC1F"/>
<path d="M4.53186 12.9646H7.54295V14.2289H4.53186V12.9646Z" fill="#77BC1F"/>
<path d="M10.6211 15.9123V5.58213L17.2227 5.57442V12.5432H18.4862V4.94156C18.4862 4.5967 18.1981 4.30941 17.8537 4.30941L9.98858 4.31859C9.63997 4.31902 9.35757 4.60188 9.35757 4.95074V15.9123H2.71726V3.40342L9.35757 1.61707V3.05224H10.6211V0.792528C10.6211 0.383563 10.2205 0.0757658 9.82529 0.182071L1.92145 2.30831C1.64553 2.38256 1.45373 2.63287 1.45373 2.91876V15.9123H0.11438V17.1765H19.8255V15.9123H10.6211Z" fill="#77BC1F"/>
<path d="M17.2228 13.6809H18.4863V14.8586H17.2228V13.6809Z" fill="#77BC1F"/>
<path d="M12.3973 7.21484H15.4084V8.4791H12.3973V7.21484Z" fill="#77BC1F"/>
<path d="M12.3973 10.0896H15.4084V11.3539H12.3973V10.0896Z" fill="#77BC1F"/>
<path d="M12.3973 12.9644H15.4084V14.2286H12.3973V12.9644Z" fill="#77BC1F"/>
</svg>
