<svg width="32" height="32" viewBox="0 0 32 32" fill="none" xmlns="http://www.w3.org/2000/svg">
<rect x="-0.25" y="0.25" width="31.5" height="31.5" rx="3.75" transform="matrix(-1 0 0 1 31.5 0)" stroke="white" stroke-opacity="0.2" stroke-width="0.5"/>
<path d="M19.8893 15.4537L13.6591 9.22366C13.515 9.07945 13.3226 9 13.1175 9C12.9124 9 12.7201 9.07945 12.576 9.22366L12.1172 9.68235C11.8186 9.98124 11.8186 10.467 12.1172 10.7655L17.3488 15.9971L12.1114 21.2345C11.9673 21.3787 11.8877 21.571 11.8877 21.776C11.8877 21.9812 11.9673 22.1734 12.1114 22.3178L12.5702 22.7763C12.7144 22.9206 12.9066 23 13.1117 23C13.3168 23 13.5092 22.9206 13.6533 22.7763L19.8893 16.5406C20.0337 16.3959 20.113 16.2028 20.1126 15.9974C20.113 15.7913 20.0337 15.5983 19.8893 15.4537Z" fill="white"/>
</svg>
