<svg width="270" height="126" viewBox="0 0 270 126" fill="none" xmlns="http://www.w3.org/2000/svg">
<path d="M143.174 27H144.903L141.787 22.478C143.706 21.851 144.77 20.369 144.77 18.165C144.77 15.334 142.851 13.7 139.526 13.7H134.472V27H135.992V22.801H139.526C139.83 22.801 140.134 22.782 140.419 22.763L143.174 27ZM135.992 21.338V15.163H139.526C141.939 15.163 143.307 16.189 143.307 18.203C143.307 20.274 141.939 21.338 139.526 21.338H135.992ZM148.715 13.092C148.164 13.092 147.746 13.529 147.746 14.118C147.746 14.707 148.164 15.144 148.715 15.144C149.266 15.144 149.684 14.707 149.684 14.118C149.684 13.529 149.266 13.092 148.715 13.092ZM149.456 27V16.987H147.993V27H149.456ZM155.719 16.93C153.895 16.93 152.242 17.728 152.242 19.647C152.223 23.2 157.828 21.965 157.771 24.378C157.752 25.366 156.802 25.803 155.624 25.803C154.446 25.803 153.154 25.328 152.299 24.53L151.729 25.651C152.679 26.563 154.142 27.057 155.567 27.057C157.486 27.057 159.234 26.183 159.234 24.207C159.234 20.616 153.648 21.756 153.648 19.533C153.648 18.602 154.503 18.203 155.624 18.203C156.555 18.203 157.562 18.526 158.341 19.02L158.911 17.842C158.075 17.272 156.916 16.93 155.719 16.93ZM165.354 21.946L168.774 27H170.541L166.399 20.863L170.142 16.987H168.394L163.245 22.117V12.902H161.763V27H163.245V24.131L165.354 21.946ZM181.935 13.643C179.18 13.643 177.337 14.992 177.337 17.082C177.337 21.851 184.823 19.989 184.804 23.485C184.804 24.758 183.607 25.537 181.688 25.537C180.187 25.537 178.496 24.853 177.261 23.656L176.577 25.024C177.831 26.221 179.731 27.057 181.669 27.057C184.519 27.057 186.476 25.632 186.476 23.409C186.495 18.583 179.009 20.369 179.009 16.949C179.009 15.828 180.13 15.182 181.84 15.182C182.904 15.182 184.31 15.505 185.507 16.303L186.153 14.878C185.051 14.137 183.474 13.643 181.935 13.643ZM194.139 25.119C193.588 25.461 193.056 25.632 192.543 25.632C191.688 25.632 191.213 25.176 191.213 23.96V18.507H194.386V17.291L191.213 17.31V14.669H189.75V17.31H188.306V18.507H189.75V24.226C189.75 26.202 190.833 27.076 192.296 27.076C193.094 27.057 193.854 26.791 194.557 26.316L194.139 25.119ZM203.005 27H204.449L204.43 20.388C204.411 18.241 203.043 16.93 200.573 16.93C198.863 16.93 197.78 17.424 196.488 18.279L197.115 19.362C198.16 18.64 199.186 18.222 200.288 18.222C202.055 18.222 202.967 19.096 202.967 20.559V21.148H199.68C197.324 21.167 195.937 22.269 195.937 24.017C195.937 25.746 197.267 27.076 199.338 27.076C200.934 27.076 202.207 26.544 203.005 25.461V27ZM199.623 25.784C198.217 25.784 197.324 25.062 197.324 23.96C197.324 22.858 198.198 22.345 199.87 22.345H202.986V23.542C202.606 24.929 201.314 25.784 199.623 25.784ZM212.508 25.119C211.957 25.461 211.425 25.632 210.912 25.632C210.057 25.632 209.582 25.176 209.582 23.96V18.507H212.755V17.291L209.582 17.31V14.669H208.119V17.31H206.675V18.507H208.119V24.226C208.119 26.202 209.202 27.076 210.665 27.076C211.463 27.057 212.223 26.791 212.926 26.316L212.508 25.119ZM223.844 16.987H222.362V21.908C222.362 24.036 221.146 25.537 219.075 25.575C217.346 25.575 216.301 24.53 216.301 22.763V16.987H214.819V23.162C214.819 25.575 216.225 27.057 218.562 27.057C220.367 27.038 221.697 26.297 222.362 24.739V27H223.844V16.987ZM230.123 16.93C228.299 16.93 226.646 17.728 226.646 19.647C226.627 23.2 232.232 21.965 232.175 24.378C232.156 25.366 231.206 25.803 230.028 25.803C228.85 25.803 227.558 25.328 226.703 24.53L226.133 25.651C227.083 26.563 228.546 27.057 229.971 27.057C231.89 27.057 233.638 26.183 233.638 24.207C233.638 20.616 228.052 21.756 228.052 19.533C228.052 18.602 228.907 18.203 230.028 18.203C230.959 18.203 231.966 18.526 232.745 19.02L233.315 17.842C232.479 17.272 231.32 16.93 230.123 16.93Z" fill="white"/>
<path d="M166.738 59.0908V40.9285H161.711L156.789 51.7326L151.866 40.9285H146.814V59.0908H150.933V47.3022L155.286 57.2772H158.291L162.644 47.3022L162.67 59.0908H166.738ZM186.148 44.5817V40.9545H171.95V59.0908H186.433V55.4635H176.561V51.8104H185.215V48.1831H176.561V44.5817H186.148ZM190.962 40.9545V59.0908H198.58C204.409 59.0908 208.399 55.3858 208.399 50.0226C208.399 44.6335 204.461 40.9545 198.761 40.9545H190.962ZM195.574 44.6335H198.657C201.585 44.6335 203.71 46.8358 203.71 50.0485C203.71 53.2354 201.689 55.4117 198.865 55.4117H195.574V44.6335ZM216.991 59.0908V40.9545H212.379V59.0908H216.991ZM238.504 40.9545H233.919V51.4735C233.919 53.9349 232.442 55.4376 230.265 55.4376C228.063 55.4376 226.483 53.9349 226.483 51.4735V40.9545H221.871V51.4735C221.871 56.2667 225.135 59.2981 230.239 59.2981C235.318 59.2981 238.504 56.2667 238.504 51.4735V40.9545ZM263.295 59.0908V40.9285H258.268L253.346 51.7326L248.423 40.9285H243.371V59.0908H247.49V47.3022L251.843 57.2772H254.848L259.201 47.3022L259.227 59.0908H263.295Z" fill="#D17D00"/>
<g clip-path="url(#clip0_14712_72071)">
<path d="M69.4196 92.9382L69.4177 92.9829L69.4198 93.0276C69.5476 95.7524 66.9499 98.3007 63.9985 98.3007C60.9574 98.3007 58.4204 95.7809 58.4204 92.8254C58.4204 89.8699 60.9574 87.3501 63.9985 87.3501C67.0588 87.3501 69.5523 89.827 69.4196 92.9382Z" fill="#D17D00" stroke="#071828" stroke-width="2"/>
<path d="M124.023 108.791L124.023 108.792C120.046 115.556 112.981 119.592 105.098 119.592H22.7932C14.9322 119.592 7.92086 115.604 3.99865 108.971L3.99829 108.97C0.0266671 102.265 7.94294e-05 94.2348 3.92247 87.476C3.92291 87.4753 3.92335 87.4745 3.92378 87.4738L45.1793 17.1559L45.1814 17.1522C49.0783 10.4454 56.1138 6.40869 64.0247 6.40869C71.937 6.40869 78.9704 10.4205 82.8664 17.1754L82.8702 17.1817L124.075 87.4259L124.075 87.4261C127.995 94.1039 127.972 102.082 124.023 108.791ZM116.801 104.73L116.802 104.728C119.243 100.564 119.278 95.619 116.881 91.5179L116.881 91.5165L75.6517 21.2251C75.6514 21.2245 75.651 21.2238 75.6507 21.2232C73.233 17.0529 68.876 14.562 64.0247 14.562C59.1501 14.562 54.8181 17.0245 52.399 21.197C52.3986 21.1977 52.3982 21.1985 52.3978 21.1992L11.1427 91.4904L11.141 91.4933C8.69519 95.6926 8.72463 100.689 11.1688 104.857L11.1692 104.858C13.5907 108.98 17.9499 111.412 22.7669 111.412H105.072C109.95 111.412 114.331 108.922 116.801 104.73Z" fill="#D17D00" stroke="#071828" stroke-width="2"/>
<path d="M58.7342 54.0718L58.7337 54.0619L58.7329 54.0521C58.6543 53.033 58.5822 52.0068 58.5098 50.9767L58.5096 50.9749C58.4383 49.9598 58.3667 48.9407 58.2887 47.9272C58.3027 44.9577 59.986 42.6125 62.6152 41.8625C65.2886 41.2538 67.9219 42.5116 69.0581 44.9538C69.4311 45.8226 69.5742 46.7061 69.5763 47.7593C69.498 49.3581 69.3875 50.9586 69.2761 52.5708L69.2757 52.5759C69.1643 54.1898 69.052 55.8155 68.9725 57.443C68.828 59.9394 68.6769 62.436 68.5256 64.9342L68.5256 64.9354C68.3747 67.4279 68.2237 69.9219 68.0793 72.4161C67.9188 74.0862 67.9186 75.5962 67.9186 77.1811C67.8019 79.3148 66.1313 80.9211 63.9982 80.9211C61.8273 80.9211 60.2019 79.4007 60.0761 77.3039C59.8525 73.4064 59.6289 69.5478 59.4053 65.6895L59.4052 65.6879C59.1815 61.8286 58.9579 57.9696 58.7342 54.0718Z" fill="#D17D00" stroke="#071828" stroke-width="2"/>
</g>
<defs>
<clipPath id="clip0_14712_72071">
<rect width="128" height="126" fill="white"/>
</clipPath>
</defs>
</svg>
