<svg width="24" height="24" viewBox="0 0 24 24" fill="none" xmlns="http://www.w3.org/2000/svg">
<g clip-path="url(#clip0_14599_71022)">
<path d="M19.2728 0H4.72738C4.12491 0 3.63647 0.488436 3.63647 1.09091V22.9091C3.63647 23.3284 3.87684 23.7107 4.2548 23.8924C4.63277 24.074 5.08135 24.023 5.40884 23.7609L12.0001 18.488L18.5914 23.7609C18.7886 23.9188 19.0297 24 19.273 24C19.4336 24 19.5952 23.9646 19.7454 23.8924C20.1234 23.7108 20.3637 23.3285 20.3637 22.9091V1.09091C20.3637 0.488436 19.8753 0 19.2728 0ZM18.1819 20.6393L12.6816 16.2391C12.4824 16.0797 12.2412 16 12.0001 16C11.759 16 11.5179 16.0797 11.3187 16.2391L5.81829 20.6393V2.18182H18.1819V20.6393Z" fill="white"/>
</g>
<defs>
<clipPath id="clip0_14599_71022">
<rect width="24" height="24" fill="white"/>
</clipPath>
</defs>
</svg>
