<svg width="22" height="22" viewBox="0 0 22 22" fill="none" xmlns="http://www.w3.org/2000/svg">
<rect width="22" height="22" fill="#BDC3C7"/>
<rect x="-1503.5" y="-505.5" width="3927" height="1472" stroke="#FF0202" stroke-width="11"/>
<rect width="1440" height="900" transform="translate(-1065 -117)" fill="white"/>
<path d="M19.2049 4.25006C19.0734 4.02226 18.8843 3.83305 18.6566 3.70141C18.4288 3.56977 18.1705 3.50033 17.9074 3.50006L19.2049 4.25006ZM19.2049 4.25006L20.9749 7.25006L19.2049 4.25006ZM18.7499 11.5701V11.7902L18.9123 11.9389L20.3298 13.2364L20.3298 13.2365L20.3378 13.2435C20.5123 13.3965 20.6281 13.6053 20.6655 13.8342C20.7029 14.0632 20.6595 14.298 20.5428 14.4985L20.5406 14.5025L18.8319 17.5001C18.8317 17.5004 18.8315 17.5008 18.8313 17.5012C18.7436 17.6526 18.6178 17.7783 18.4663 17.8658C18.3145 17.9536 18.1423 17.9999 17.9669 18L17.9636 18.0001C17.8556 18.0009 17.7482 17.9842 17.6455 17.9507C17.6449 17.9505 17.6442 17.9503 17.6436 17.9501L15.8329 17.3365L15.6014 17.258L15.3972 17.3926C15.0984 17.5896 14.7869 17.7666 14.4647 17.9225L14.2416 18.0304L14.1924 18.2734L13.8099 20.1634L13.8095 20.1652C13.7638 20.3954 13.6386 20.6021 13.4558 20.7493C13.2729 20.8965 13.0442 20.9746 12.8095 20.9702L12.8095 20.9701H12.7999H9.25995V20.97L9.25037 20.9702C9.01571 20.9746 8.78696 20.8965 8.60414 20.7493C8.42132 20.6021 8.29609 20.3954 8.25037 20.1652L8.25001 20.1634L7.86751 18.2734L7.81851 18.0313L7.59647 17.9231C7.2768 17.7673 6.96785 17.5904 6.67167 17.3936L6.46743 17.2579L6.23508 17.3363L4.41628 17.9501C4.41573 17.9503 4.41518 17.9504 4.41464 17.9506C4.31189 17.9842 4.20438 18.0009 4.09628 18.0001L4.09296 18.0001C3.91759 17.9999 3.74536 17.9536 3.59354 17.8658C3.44172 17.7781 3.31564 17.6519 3.22796 17.5001L3.22798 17.5001L3.22558 17.496L1.45558 14.496L1.4556 14.496L1.45315 14.4919C1.3311 14.2895 1.28473 14.0503 1.32225 13.8169C1.35978 13.5835 1.47879 13.3709 1.65815 13.2169L1.6582 13.217L1.66463 13.2113L3.08213 11.9513L3.24995 11.8021V11.5776V10.4301V10.2099L3.08754 10.0612L1.67004 8.76374L1.67012 8.76366L1.66207 8.7566C1.48763 8.60366 1.37179 8.39483 1.33439 8.16588C1.29706 7.93736 1.3402 7.70298 1.4564 7.50274L3.22558 4.50414L3.2256 4.50415L3.22796 4.50006C3.31564 4.34819 3.44172 4.22205 3.59354 4.13429C3.74536 4.04653 3.9176 4.00024 4.09296 4.00006L4.10969 4.00004L4.12638 3.99891C4.22709 3.99206 4.32822 4.0005 4.42633 4.0239L6.18753 4.6603L6.42333 4.74551L6.63266 4.60751C6.93146 4.41051 7.24298 4.23351 7.56516 4.07767L7.78834 3.96972L7.83751 3.72674L8.22001 1.83674L8.22037 1.83497C8.26609 1.60477 8.39132 1.39799 8.57414 1.25082L8.26681 0.869041L8.57414 1.25082C8.75696 1.10365 8.98571 1.02547 9.22037 1.02997L9.22036 1.03006H9.22995H12.7399V1.03015L12.7495 1.02997C12.9842 1.02547 13.2129 1.10365 13.3958 1.25082L13.7089 0.861759L13.3958 1.25082C13.5786 1.39799 13.7038 1.60477 13.7495 1.83497L13.7499 1.83674L14.1324 3.72674L14.1814 3.96884L14.4034 4.07704C14.7231 4.23281 15.032 4.40969 15.3282 4.6065L15.5325 4.74222L15.7648 4.66382L17.5836 4.05005C17.5842 4.04986 17.5847 4.04968 17.5853 4.0495C17.688 4.01592 17.7955 3.99922 17.9036 4.00006L17.9069 4.00006C18.0823 4.00024 18.2545 4.04653 18.4064 4.13429C18.5582 4.22205 18.6843 4.34819 18.7719 4.50006L18.7719 4.50007L18.7743 4.50414L20.5443 7.50414L20.5442 7.50418L20.5493 7.51246C20.6731 7.71326 20.722 7.95135 20.6872 8.18466C20.6525 8.41774 20.5365 8.63105 20.3599 8.78699C20.3597 8.78715 20.3595 8.78731 20.3593 8.78747L18.9207 10.0463L18.7499 10.1957V10.4226V11.0001V11.5701ZM17.7473 17.4737L18.1318 17.6038L18.3381 17.2541L20.1081 14.2541L20.3149 13.9036L20.0136 13.6299L18.1735 11.959C18.2639 11.3069 18.2641 10.6454 18.1741 9.99331L20.0083 8.37498L20.318 8.10171L20.1081 7.74599L18.3381 4.74599L18.1342 4.4004L17.7527 4.52463L15.4294 5.28105C14.9112 4.88128 14.3431 4.55085 13.7395 4.29814L13.2602 1.902L13.1798 1.50006H12.7699H9.22995H8.81915L8.73945 1.90305L8.26043 4.32511C7.65239 4.57322 7.08145 4.90397 6.56376 5.30802L4.25263 4.52641L3.86809 4.39637L3.66181 4.74599L1.89181 7.74599L1.68497 8.09657L1.98631 8.37022L3.82639 10.0412C3.736 10.6933 3.73579 11.3547 3.82575 12.0068L1.99163 13.6251L1.68193 13.8984L1.89181 14.2541L3.66181 17.2541L3.8657 17.5997L4.24724 17.4755L6.57053 16.7191C7.08866 17.1188 7.65676 17.4493 8.26043 17.702L8.73966 20.0981L8.82004 20.5001H9.22995H12.7699H13.1807L13.2604 20.0971L13.7395 17.675C14.3475 17.4269 14.9184 17.0962 15.4361 16.6921L17.7473 17.4737Z" fill="#061320" stroke="#061320"/>
<path d="M11.0051 15L11.0051 15H11C10.2089 15 9.43552 14.7654 8.77772 14.3259C8.11992 13.8864 7.60723 13.2616 7.30448 12.5307C7.00173 11.7998 6.92252 10.9956 7.07686 10.2196C7.2312 9.44372 7.61216 8.73098 8.17157 8.17157C8.73098 7.61216 9.44372 7.2312 10.2196 7.07686C10.9956 6.92252 11.7998 7.00173 12.5307 7.30448C13.2616 7.60723 13.8864 8.11992 14.3259 8.77772C14.7654 9.43552 15 10.2089 15 11H15L15 11.0051C15.0054 11.5312 14.9057 12.0531 14.7068 12.5402C14.5079 13.0273 14.2139 13.4698 13.8418 13.8418C13.4698 14.2139 13.0273 14.5079 12.5402 14.7068C12.0531 14.9057 11.5312 15.0054 11.0051 15ZM11 7.49989C10.5398 7.49073 10.0825 7.57421 9.65516 7.74541C9.22424 7.91805 8.83282 8.17631 8.50456 8.50456C8.17631 8.83282 7.91805 9.22424 7.74541 9.65516C7.57421 10.0825 7.49073 10.5398 7.49989 11C7.49073 11.4602 7.57421 11.9175 7.74541 12.3448C7.91805 12.7758 8.17631 13.1672 8.50456 13.4954C8.83282 13.8237 9.22424 14.082 9.65516 14.2546C10.0825 14.4258 10.5398 14.5093 11 14.5001C11.4602 14.5093 11.9175 14.4258 12.3448 14.2546C12.7758 14.082 13.1672 13.8237 13.4954 13.4954C13.8237 13.1672 14.082 12.7758 14.2546 12.3448C14.4258 11.9175 14.5093 11.4602 14.5001 11C14.5093 10.5398 14.4258 10.0825 14.2546 9.65516C14.082 9.22424 13.8237 8.83282 13.4954 8.50456C13.1672 8.17631 12.7758 7.91805 12.3448 7.74541C11.9175 7.57421 11.4602 7.49073 11 7.49989Z" fill="#061320" stroke="#061320"/>
</svg>
