<svg width="12" height="12" viewBox="0 0 12 12" fill="none" xmlns="http://www.w3.org/2000/svg">
<path d="M1.33333 1.25833H1.25833V1.33333V4V4.075H1.33333H4H4.075V4V1.33333V1.25833H4H1.33333ZM10.6667 4.075H10.7417V4V1.33333V1.25833H10.6667H8H7.925V1.33333V4V4.075H8H10.6667ZM1.33333 7.925H1.25833V8V10.6667V10.7417H1.33333H4H4.075V10.6667V8V7.925H4H1.33333ZM8.66667 8.74167H8.74167V8.66667V6.74167H9.925V8.66667V8.74167H10H11.925V9.925H10H9.925V10V11.925H8.74167V10V9.925H8.66667H6.74167V8.74167H8.66667ZM5.25833 5.25833H0.075V0.075H5.25833V5.25833ZM11.925 5.25833H6.74167V0.075H11.925V5.25833ZM5.25833 6.74167V11.925H0.075V6.74167H5.25833Z" fill="#77BC1F" stroke="#071828" stroke-width="0.15"/>
</svg>
