<svg width="16" height="16" viewBox="0 0 16 16" fill="none" xmlns="http://www.w3.org/2000/svg">
<path d="M4.26678 10.1689V4.71111H10.8446L11.5468 4H3.55566V10.1689H4.26678Z" fill="#77BC1F"/>
<path d="M2.66672 3.11106H13.3334V10.2222H14.2223V2.88883C14.2223 2.71202 14.152 2.54245 14.027 2.41743C13.902 2.29241 13.7324 2.22217 13.5556 2.22217H2.4445C2.26769 2.22217 2.09812 2.29241 1.97309 2.41743C1.84807 2.54245 1.77783 2.71202 1.77783 2.88883V10.2222H2.66672V3.11106Z" fill="#77BC1F"/>
<path d="M0.444336 11.1111V12.6222C0.444336 12.9287 0.566082 13.2226 0.78279 13.4393C0.999499 13.656 1.29342 13.7778 1.59989 13.7778H14.3732C14.6797 13.7778 14.9736 13.656 15.1903 13.4393C15.407 13.2226 15.5288 12.9287 15.5288 12.6222V11.1111H0.444336ZM14.6666 12.6222C14.6666 12.6929 14.6385 12.7607 14.5885 12.8108C14.5384 12.8608 14.4706 12.8889 14.3999 12.8889H1.58211C1.51139 12.8889 1.44356 12.8608 1.39355 12.8108C1.34354 12.7607 1.31545 12.6929 1.31545 12.6222V11.7911H5.73767C5.79323 11.9222 5.88598 12.0341 6.00446 12.1131C6.12293 12.1921 6.26195 12.2347 6.40434 12.2355H9.57323C9.71561 12.2347 9.85463 12.1921 9.97311 12.1131C10.0916 12.0341 10.1843 11.9222 10.2399 11.7911H14.6666V12.6222Z" fill="#77BC1F"/>
</svg>
