<svg width="32" height="32" viewBox="0 0 32 32" fill="none" xmlns="http://www.w3.org/2000/svg">
<path d="M15.9999 27.9999C21.8812 27.9999 26.6666 23.2146 26.6666 17.3332C26.6666 12.8666 23.9039 9.03857 19.9999 7.4519V10.4159C21.2145 11.1171 22.2234 12.1253 22.9254 13.3394C23.6275 14.5535 23.998 15.9308 23.9999 17.3332C23.9999 21.7452 20.4119 25.3332 15.9999 25.3332C11.5879 25.3332 7.99992 21.7452 7.99992 17.3332C8.00169 15.9308 8.37219 14.5534 9.07425 13.3393C9.77632 12.1252 10.7853 11.117 11.9999 10.4159V7.4519C8.09592 9.03857 5.33325 12.8666 5.33325 17.3332C5.33325 23.2146 10.1186 27.9999 15.9999 27.9999Z" fill="#77BC1F"/>
<path d="M14.6667 2.66675H17.3334V16.0001H14.6667V2.66675Z" fill="#77BC1F"/>
</svg>
