<svg width="60" height="60" viewBox="0 0 60 60" fill="none" xmlns="http://www.w3.org/2000/svg">
<path d="M29.0125 14.455L29.5875 8.5325C29.815 6.1525 32.0375 4.5375 34.2825 5.1175C37.66 5.9925 40.0325 9.13 40.0325 12.7275V20.315C40.0325 22.0025 40.0325 22.8475 40.3975 23.465C40.605 23.8175 40.89 24.115 41.23 24.3275C41.83 24.705 42.6475 24.705 44.28 24.705H45.27C49.5275 24.705 51.655 24.705 52.965 25.68C53.9475 26.4125 54.64 27.485 54.915 28.7C55.28 30.325 54.4625 32.3575 52.825 36.4175L52.01 38.4425C51.5372 39.6153 51.3438 40.882 51.445 42.1425C52.025 49.3275 46.3275 55.38 39.3625 54.9825L13.3025 53.485C10.455 53.3225 9.03246 53.24 7.74746 52.1025C6.45996 50.965 6.21746 49.7925 5.73496 47.45C4.70804 42.4665 4.75491 37.3214 5.87246 32.3575C6.57996 29.2375 9.55996 27.5575 12.6375 27.9575C20.7975 29.0075 28.195 22.91 29.0125 14.4575V14.455Z" stroke="#77BC1F" stroke-width="2" stroke-linecap="round" stroke-linejoin="round"/>
<path d="M17.5002 28.75L17.1577 29.8925C14.9404 37.2837 15.0601 45.1793 17.5002 52.5" stroke="#77BC1F" stroke-width="2" stroke-linecap="round" stroke-linejoin="round"/>
</svg>
