<svg width="303" height="303" viewBox="0 0 303 303" fill="none" xmlns="http://www.w3.org/2000/svg">
<g clip-path="url(#clip0_16699_103074)">
<path d="M205.502 96.8878C191.727 83.1159 172.28 74.2002 151.2 74.2002C130.132 74.2002 110.676 82.7078 96.888 96.8981C83.116 110.673 74.2002 130.12 74.2002 151.2C74.2002 172.283 83.1182 191.732 96.8931 205.507C110.668 219.282 130.118 228.2 151.2 228.2C172.268 228.2 191.725 219.692 205.513 205.502C219.285 191.727 228.2 172.28 228.2 151.2C228.2 130.132 219.693 110.675 205.502 96.8878ZM189.693 189.693C179.881 199.505 166.136 205.4 151.2 205.4C136.265 205.4 122.519 199.505 112.707 189.693C102.895 179.881 97.0002 166.136 97.0002 151.2C97.0002 136.265 102.895 122.519 112.707 112.707C122.519 102.895 136.265 97.0002 151.2 97.0002C166.136 97.0002 179.881 102.895 189.693 112.707C199.505 122.519 205.4 136.265 205.4 151.2C205.4 166.136 199.505 179.881 189.693 189.693Z" fill="white" stroke="black" stroke-width="2"/>
<path d="M292 138.8H261.2C254.495 138.8 248.8 144.495 248.8 151.2C248.8 157.904 254.495 163.6 261.2 163.6H292C298.704 163.6 304.4 157.904 304.4 151.2C304.4 144.495 298.704 138.8 292 138.8Z" fill="white" stroke="black" stroke-width="4"/>
<path d="M151.2 248.8C144.495 248.8 138.8 254.495 138.8 261.2V292C138.8 298.704 144.495 304.4 151.2 304.4C157.904 304.4 163.6 298.704 163.6 292V261.2C163.6 254.495 157.904 248.8 151.2 248.8Z" fill="white" stroke="black" stroke-width="4"/>
<path d="M259.414 242.185L237.45 220.221C233.008 215.336 224.91 215.461 220.186 220.185C215.405 224.966 215.405 232.633 220.186 237.414L242.186 259.414C246.967 264.195 254.633 264.195 259.414 259.414C264.195 254.633 264.195 246.966 259.414 242.185Z" fill="white" stroke="black" stroke-width="4"/>
<path d="M151.2 -2C144.495 -2 138.8 3.69543 138.8 10.4V41.2C138.8 47.9046 144.495 53.6 151.2 53.6C157.904 53.6 163.6 47.9046 163.6 41.2V10.4C163.6 3.69543 157.904 -2 151.2 -2Z" fill="white" stroke="black" stroke-width="4"/>
<path d="M259.814 42.9862C255.033 38.2051 247.367 38.2051 242.586 42.9862L220.586 64.9862C215.817 69.7549 215.805 77.3942 220.549 82.1777C224.991 87.0642 233.09 86.9393 237.814 82.2146L259.814 60.2146C264.595 55.4336 264.595 47.7672 259.814 42.9862Z" fill="white" stroke="black" stroke-width="4"/>
<path d="M41.2 138.8H10.4C3.69543 138.8 -2 144.495 -2 151.2C-2 157.854 3.24548 163.6 10.4 163.6H41.2C47.9046 163.6 53.6 157.904 53.6 151.2C53.6 144.495 47.9046 138.8 41.2 138.8Z" fill="white" stroke="black" stroke-width="4"/>
<path d="M81.851 220.222C77.4094 215.336 69.3105 215.461 64.5858 220.185L42.5858 242.185C37.8047 246.966 37.8047 254.633 42.5858 259.414C47.3668 264.195 55.0332 264.195 59.8142 259.414L81.8142 237.414C86.583 232.645 86.5952 225.006 81.851 220.222Z" fill="white" stroke="black" stroke-width="4"/>
<path d="M81.8142 64.9862L59.8142 42.9862C55.0332 38.2051 47.3668 38.2051 42.5858 42.9862C37.8047 47.7672 37.8047 55.4336 42.5858 60.2146L64.5858 82.2146C69.3668 86.9957 77.0332 86.9957 81.8142 82.2146C86.5953 77.4336 86.5953 69.7672 81.8142 64.9862Z" fill="white" stroke="black" stroke-width="4"/>
</g>
<defs>
<clipPath id="clip0_16699_103074">
<rect width="302.4" height="302.4" fill="white"/>
</clipPath>
</defs>
</svg>
