<svg width="28" height="28" viewBox="0 0 28 28" fill="none" xmlns="http://www.w3.org/2000/svg">
<path d="M3.5 3.25H3.25V3.5V9.5V9.75H3.5H9.5H9.75V9.5V3.5V3.25H9.5H3.5ZM24.5 9.75H24.75V9.5V3.5V3.25H24.5H18.5H18.25V3.5V9.5V9.75H18.5H24.5ZM3.5 18.25H3.25V18.5V24.5V24.75H3.5H9.5H9.75V24.5V18.5V18.25H9.5H3.5ZM20 20.25H20.25V20V15.75H22.75V20V20.25H23H27.25V22.75H23H22.75V23V27.25H20.25V23V22.75H20H15.75V20.25H20ZM12.25 12.25H0.75V0.75H12.25V12.25ZM27.25 12.25H15.75V0.75H27.25V12.25ZM12.25 15.75V27.25H0.75V15.75H12.25Z" fill="#77BC1F" stroke="#071828" stroke-width="0.5"/>
</svg>
