<svg width="18" height="18" viewBox="0 0 18 18" fill="none" xmlns="http://www.w3.org/2000/svg">
<path d="M2 1.85H1.85V2V6V6.15H2H6H6.15V6V2V1.85H6H2ZM16 6.15H16.15V6V2V1.85H16H12H11.85V2V6V6.15H12H16ZM2 11.85H1.85V12V16V16.15H2H6H6.15V16V12V11.85H6H2ZM13 13.15H13.15V13V10.15H14.85V13V13.15H15H17.85V14.85H15H14.85V15V17.85H13.15V15V14.85H13H10.15V13.15H13ZM7.85 7.85H0.15V0.15H7.85V7.85ZM17.85 7.85H10.15V0.15H17.85V7.85ZM7.85 10.15V17.85H0.15V10.15H7.85Z" fill="white" stroke="#071828" stroke-width="0.3"/>
</svg>
