<svg width="16" height="16" viewBox="0 0 16 16" fill="none" xmlns="http://www.w3.org/2000/svg">
<path d="M6.61111 11.5556C6.61111 13.2431 5.24309 14.6111 3.55556 14.6111C1.86802 14.6111 0.5 13.2431 0.5 11.5556C0.5 9.86804 1.86802 8.50003 3.55556 8.50003C5.24309 8.50003 6.61111 9.86804 6.61111 11.5556ZM15.5 11.5556C15.5 13.2431 14.132 14.6111 12.4444 14.6111C10.7569 14.6111 9.38889 13.2431 9.38889 11.5556C9.38889 9.86804 10.7569 8.50003 12.4444 8.50003C14.132 8.50003 15.5 9.86804 15.5 11.5556ZM11.0556 4.44447C11.0556 6.13201 9.68754 7.50003 8 7.50003C6.31246 7.50003 4.94444 6.13201 4.94444 4.44447C4.94444 2.75693 6.31246 1.38892 8 1.38892C9.68754 1.38892 11.0556 2.75693 11.0556 4.44447Z" stroke="white"/>
</svg>
