<svg width="30" height="30" viewBox="0 0 30 30" fill="none" xmlns="http://www.w3.org/2000/svg">
<circle cx="15" cy="15" r="15" fill="white"/>
<path d="M14.9339 11.0132C14.5744 11.0132 14.2297 11.156 13.9756 11.4101C13.7214 11.6643 13.5786 12.009 13.5786 12.3684V21.8553C13.5786 22.2147 13.7214 22.5594 13.9756 22.8136C14.2297 23.0678 14.5744 23.2106 14.9339 23.2106C15.2933 23.2106 15.638 23.0678 15.8922 22.8136C16.1464 22.5594 16.2891 22.2147 16.2891 21.8553V12.3684C16.2891 12.009 16.1464 11.6643 15.8922 11.4101C15.638 11.156 15.2933 11.0132 14.9339 11.0132Z" fill="#008DD1"/>
<path d="M14.9344 9.65779C15.6829 9.65779 16.2896 9.05102 16.2896 8.30253C16.2896 7.55404 15.6829 6.94727 14.9344 6.94727C14.1859 6.94727 13.5791 7.55404 13.5791 8.30253C13.5791 9.05102 14.1859 9.65779 14.9344 9.65779Z" fill="#008DD1"/>
</svg>
