<svg width="26" height="28" viewBox="0 0 26 28" fill="none" xmlns="http://www.w3.org/2000/svg">
<path d="M8.71109 3.2106L8.63935 3.08341H8.49333H4.84H4.69347L4.62187 3.21126L2.75521 6.5446L2.6868 6.66675L2.75521 6.7889L4.62187 10.1222L4.69347 10.2501H4.84H8.49333H8.63935L8.71109 10.1229L10.5911 6.78956L10.6604 6.66675L10.5911 6.54393L8.71109 3.2106ZM3.29807 1.13567L3.29812 1.13569L3.30059 1.13106C3.36469 1.01087 3.50752 0.916748 3.66667 0.916748H9.66623C9.74142 0.917046 9.81517 0.937366 9.87991 0.975619L10.0066 0.761141L9.87991 0.975619C9.94475 1.01393 9.99819 1.06885 10.0347 1.1347L10.0353 1.13567L12.983 6.39379L13.0707 6.66675L12.983 6.93971L10.0353 12.1978L10.0352 12.1978L10.0327 12.2024C9.96864 12.3226 9.82581 12.4167 9.66667 12.4167H3.66667C3.50752 12.4167 3.36469 12.3226 3.30059 12.2024L3.30064 12.2024L3.29807 12.1978L0.350333 6.93971L0.262597 6.66675L0.350333 6.39379L3.29807 1.13567ZM21.0455 10.5459L20.9742 10.4167H20.8267H17.1733H17.0258L16.9545 10.5459L15.1145 13.8793L15.0478 14.0001L15.1145 14.1209L16.9545 17.4542L17.0258 17.5834H17.1733H20.8267H20.9742L21.0455 17.4542L22.8855 14.1209L22.9522 14.0001L22.8855 13.8793L21.0455 10.5459ZM15.6314 8.469L15.6315 8.46903L15.6339 8.4644C15.698 8.34421 15.8409 8.25008 16 8.25008H21.9996C22.0748 8.25039 22.1485 8.27071 22.2132 8.30895C22.2781 8.34726 22.3315 8.40218 22.3681 8.46804L22.3686 8.469L25.3163 13.7271L25.4041 14.0001L25.3163 14.273L22.3686 19.5312L22.3685 19.5311L22.3661 19.5358C22.302 19.656 22.1591 19.7501 22 19.7501H16C15.8409 19.7501 15.698 19.656 15.6339 19.5358L15.634 19.5357L15.6314 19.5312L12.6837 14.273L12.5959 14.0001L12.6837 13.7271L15.6314 8.469ZM8.71109 17.8773L8.63935 17.7501H8.49333H4.84H4.69347L4.62187 17.8779L2.75521 21.2113L2.6868 21.3334L2.75521 21.4556L4.62187 24.7889L4.69347 24.9167H4.84H8.49333H8.63935L8.71109 24.7896L10.5911 21.4562L10.6604 21.3334L10.5911 21.2106L8.71109 17.8773ZM3.29807 15.8023L3.29812 15.8024L3.30059 15.7977C3.36469 15.6775 3.50752 15.5834 3.66667 15.5834L9.66588 15.5834C9.66597 15.5834 9.66606 15.5834 9.66616 15.5834C9.74137 15.5837 9.81515 15.604 9.87991 15.6423C9.94474 15.6806 9.99819 15.7355 10.0347 15.8014L10.0353 15.8023L12.983 21.0605L13.0707 21.3334L12.983 21.6064L10.0353 26.8645L10.0352 26.8645L10.0327 26.8691C9.96864 26.9893 9.82581 27.0834 9.66667 27.0834H3.66667C3.50752 27.0834 3.36469 26.9893 3.30059 26.8691L3.30064 26.8691L3.29807 26.8645L0.350333 21.6064L0.262597 21.3334L0.350333 21.0605L3.29807 15.8023Z" fill="#77BC1F" stroke="#071828" stroke-width="0.5"/>
</svg>
