<svg width="17" height="16" viewBox="0 0 17 16" fill="none" xmlns="http://www.w3.org/2000/svg">
<g clip-path="url(#clip0_14599_71071)">
<path d="M11.8991 7.46394V5.02241L6.87823 7.46394V4.95138L4.6723 6.25103V0H0.919922V16H16.9199V5.02244L11.8991 7.46394ZM1.85745 0.937531H3.7348V6.80341L1.85745 7.90947V0.937531V0.937531ZM15.9824 15.0625H1.85745V8.99763L5.94073 6.59188V8.96237L10.9616 6.52084V8.96237L15.9824 6.52087V15.0625Z" fill="#77BC1F"/>
<path d="M3.74194 10.3708V13.185H8.4505V10.3708H3.74194ZM7.51297 12.2474H4.67951V11.3084H7.51297V12.2474Z" fill="#77BC1F"/>
<path d="M9.3894 10.3708V13.185H14.098V10.3708H9.3894ZM13.1604 12.2474H10.3269V11.3084H13.1604V12.2474Z" fill="#77BC1F"/>
</g>
<defs>
<clipPath id="clip0_14599_71071">
<rect x="0.919922" width="16" height="16" rx="8" fill="white"/>
</clipPath>
</defs>
</svg>
